<svg xmlns="http://www.w3.org/2000/svg">
    <symbol id='icon-marketing' viewBox="0 0 24 24" fill-rule="evenodd" clip-rule="evenodd">
        <path d="M9.666 4.083c-.137.554-.21 1.133-.21 1.728 0 .322.02.635.059.94l-.037-.011c-.426-.147-1.336.541-1.481.546-.055.002.001-.52.292-.558-.09.013.461-.285.778-.503-.661.161-1.291.403-1.877.717.03.031.021.072-.116.161-.148.088-.305.655-.444.655-.414.181-.44-.355-.9.335-.042.062-.169.098-.308.133-1.24 1.189-2.098 2.772-2.372 4.547l.145.092c.092.109.092.583.137.737.113.392.392.609.606.966.126.213.336.749.27.971.089-.145.877.669 1.02.838.339.399.602.882.05 1.276-.177.129.27.926.039 1.122l-.296.075c-.12.073-.168.191-.171.316 1.468 1.734 3.659 2.834 6.106 2.834 4.231 0 7.698-3.29 7.981-7.449.684-.597 1.339-1.183 1.945-1.774.049.401.074.809.074 1.223 0 5.52-4.48 10-10 10-5.519 0-10-4.48-10-10 0-5.082 3.799-9.283 8.71-9.917zm6.892 11.777l-.755 1.188c-.139.26.112.902.092 1.209-.024.354-.303.469-.569.661-.282.208-.216.611-.454.758-.424.261-.728 1.109-1.33 1.105-.177-.001-.934.295-1.033.006-.077-.21-.18-.37-.289-.577-.106-.204-.012-.413-.141-.592-.09-.124-.389-.408-.416-.555-.002-.127.096-.513.23-.58.188-.096.035-.375.012-.537-.039-.29-.218-.53-.434-.697-.318-.246-.154-.44-.079-.791 0-.167-.102-.385-.327-.32-.462.135-.321-.361-.658-.338-.242.018-.441.171-.667.24-.283.084-.573-.068-.853-.103-1.153-.146-1.529-1.463-1.228-2.414.03-.155-.094-.444-.039-.565.129-.288.394-.612.624-.831.129-.122.296-.091.448-.186.235-.148.238-.453.468-.64.328-.267.776-.261 1.203-.318.164-.022.663-.126.978-.118.102.133.267.343.524.639 1.114 1.286 2.523 2.503 4.02 3.797l.673.559zm-6.252-6.602c.143.279.302.552.476.82l-.08.152c-.122.045-.235.104-.343.176l-.129.288c-.056.05-.626.239-.63.246.025-.062-.399-.14-.371-.263.031-.135.175-.557.138-.711-.039-.162.88.233.94-.194.023-.183.036-.398-.258-.429l.257-.085zm2.336-2.483h2.078v-1.505h-2.097c.296-1.841 1.749-3.296 3.603-3.613v2.107h1.504v-2.107c1.854.317 3.308 1.772 3.604 3.613h-2.098v1.505h2.078c-.339 1.783-1.771 3.179-3.584 3.487v-1.981h-1.504v1.981c-1.812-.308-3.244-1.704-3.584-3.487zm4.336 7.528c3.387-2.93 6.022-5.173 6.022-8.453 0-3.231-2.696-5.85-6.022-5.85s-6.022 2.619-6.022 5.85c0 3.28 2.635 5.523 6.022 8.453z"/>
    </symbol>

    <symbol id='icon-certificate' viewBox="0 0 24 24">
        <path d="M18.625 19.46c-.264 1.696-.97 3.247-2.1 4.54-.065-.461-.254-.908-.433-1.266-.409.216-.899.33-1.328.33l-.265-.016c1.199-1.25 1.791-2.544 1.965-4.27.281.079.623.12 1.053.12.415.284.578.46 1.108.562zm4.875 3.589c-1.197-1.248-1.782-2.549-1.957-4.271-.283.079-.625.122-1.061.122-.414.285-.587.461-1.106.561.264 1.697.97 3.247 2.099 4.54.065-.461.254-.908.433-1.266.51.269 1.131.372 1.592.314zm-4.992-4.829c-.704-.494-.552-.447-1.423-.444h-.002c-.362 0-.685-.225-.794-.557-.267-.797-.176-.673-.879-1.163-.302-.208-.418-.577-.307-.9.273-.793.273-.641 0-1.438-.109-.32.002-.691.307-.9.703-.488.611-.365.879-1.163.109-.333.432-.557.794-.557h.002c.87.002.718.052 1.423-.444.146-.102.318-.154.492-.154s.346.052.492.154c.704.495.552.447 1.423.444h.001c.363 0 .686.224.797.557.266.796.172.673.877 1.163.223.153.348.397.348.65l-.042.25c-.272.793-.272.641 0 1.438.111.317 0 .69-.306.9-.705.489-.611.366-.877 1.163-.205.614-.656.555-1.18.555-.463 0-.465.042-1.041.446-.293.207-.691.207-.984 0zm.492-1.814c1.088 0 1.969-.882 1.969-1.969 0-1.087-.881-1.969-1.969-1.969s-1.969.881-1.969 1.969c0 1.087.881 1.969 1.969 1.969zm-4.674 1.333c-1.675 1.058-3.561 2.247-3.952 2.493-.043-.772-.329-1.492-.828-2.084-.058-.074-5.813-7.4-7.222-9.204-1.109-1.42-.06-2.934 1.23-2.934 1.694 0 2.369 2.207.894 3.163l1.163 1.486 8.053-4.551c1.396-1.032 1.79-2.938.914-4.434-.605-1.032-1.726-1.674-2.924-1.674-.475 0-.936.098-1.373.292l-8.264 4.227c-1.301.624-2.017 1.846-2.017 3.147 0 .816.282 1.663.877 2.412 1.444 1.815 7.261 9.253 7.319 9.328.862 1.147.017 2.753-1.376 2.753-.989 0-1.516-.705-1.667-1.308-.176-.705.069-1.407.773-1.858l-1.141-1.458c-.855.602-1.4 1.515-1.507 2.536-.228 2.174 1.504 3.929 3.557 3.929.63 0 1.255-.174 1.807-.502l5.485-3.458c.264-.415.529-1.431.199-2.301zm-3.319-15.755c.203-.095.431-.145.659-.145.577 0 1.082.305 1.349.816.338.645.244 1.59-.594 2.071l-5.307 3.006c0-1.191-.581-2.284-1.57-2.952l5.463-2.796zm1.987 6.267l1.725 2.117c.348-.525.858-.921 1.46-1.121l-1.562-1.916-1.623.92zm-2.886 8.043l2.871-1.628-.633-.825-2.863 1.661.625.792zm1.842-6.987l-5.012 2.943.624.792 5.026-2.951-.638-.784zm1.286 1.597l-5.035 2.965.624.792 5.049-2.974-.638-.783z"/>
    </symbol>

    <symbol id='icon-shield' viewBox="0 0 24 24">
        <path d="M18.649 7.585c-1.104 5.619-4.544 9.466-6.649 11.364-2.105-1.897-5.545-5.745-6.649-11.364 2.039-.39 4.415-1.13 6.649-2.519 2.233 1.389 4.609 2.13 6.649 2.519zm4.351-3.585c0 8.583-5.068 16.097-11 20-5.932-3.903-11-11.417-11-20 3.514 0 8.005-1.005 11-4 2.995 2.995 7.486 4 11 4zm-2.088 1.894c-2.455-.246-5.947-1.012-8.912-3.25-2.965 2.238-6.458 3.004-8.912 3.25.658 7.052 4.891 12.593 8.912 15.655 4.021-3.062 8.254-8.603 8.912-15.655z"/>
    </symbol>

    <symbol id='icon-like' viewBox="0 0 24 24">
        <path d="M12.352 2.107c2.481 1.759 2.474 1.736 5.493 1.718.244 0 .459.136.524.331.917 2.789.942 2.838 3.438 4.554.176.122.227.307.174.453-.971 2.801-.979 2.834 0 5.676.053.145.003.33-.175.453-2.469 1.699-2.505 1.73-3.437 4.553-.065.195-.28.331-.526.331-2.995-.019-3-.049-5.49 1.717-.205.145-.501.144-.704 0-2.475-1.751-2.463-1.739-5.493-1.717-.244 0-.459-.136-.523-.329-.826-2.499-.907-2.82-2.925-4.202l-.514-.354c-.176-.122-.227-.307-.174-.453.866-2.504.999-2.805.193-5.114-.146-.424-.374-.769-.019-1.016 2.458-1.691 2.506-1.722 3.437-4.553.065-.195.28-.331.526-.331 3.009.021 2.996.048 5.491-1.717.206-.145.503-.141.704 0zm-.352-2.107c-.527 0-1.055.157-1.502.471-1.757 1.236-1.77 1.362-3.152 1.362l-1.183-.008h-.008c-1.104 0-2.083.685-2.421 1.696-.812 2.433-.533 2.055-2.68 3.544-.675.468-1.054 1.212-1.054 1.982 0 .254.041.512.127.763.83 2.428.827 1.963 0 4.38-.086.251-.127.508-.127.763 0 .77.379 1.514 1.055 1.982 2.147 1.489 1.869 1.114 2.68 3.544.338 1.011 1.316 1.696 2.421 1.696h.008c2.652-.008 2.189-.155 4.335 1.354.446.313.974.471 1.501.471s1.055-.157 1.502-.471c1.76-1.238 1.762-1.361 3.181-1.361l1.154.007h.008c1.104 0 2.083-.685 2.421-1.696.812-2.428.528-2.053 2.68-3.544.675-.469 1.054-1.212 1.054-1.982 0-.254-.041-.512-.127-.763-.831-2.428-.827-1.963 0-4.38.086-.251.127-.509.127-.763 0-.77-.379-1.514-1.055-1.982-2.152-1.492-1.868-1.117-2.68-3.544-.338-1.011-1.316-1.696-2.421-1.696h-.008l-1.156.007c-1.416 0-1.42-.124-3.179-1.361-.446-.314-.974-.471-1.501-.471zm3.698 15.354c-.405-.031-.367-.406.016-.477.634-.117.913-.457.913-.771 0-.265-.198-.511-.549-.591-.418-.095-.332-.379.016-.406.566-.045.844-.382.844-.705 0-.282-.212-.554-.63-.61-.429-.057-.289-.367.016-.461.261-.08.677-.25.677-.755 0-.336-.25-.781-1.136-.745-.614.025-1.833-.099-2.489-.442.452-1.829.343-4.391-.845-4.391-.797 0-.948.903-1.188 1.734-.859 2.984-2.577 3.531-4.343 3.802v4.964c3.344 0 4.25 1.5 6.752 1.5 1.6 0 2.426-.867 2.426-1.333 0-.167-.136-.287-.48-.313z"/>
    </symbol>

    <symbol id='icon-vk' viewBox="0 0 48 48">
        <g transform="translate(-166 -1135)">
            <circle cx="24" cy="24" r="24" transform="translate(166 1135)" fill="#5181b8"></circle>
            <g transform="translate(179.763 1154.609)">
                <path d="M20.4,128.317a1.4,1.4,0,0,0-.069-.134,10.63,10.63,0,0,0-2.04-2.36l-.021-.021-.011-.01-.011-.011H18.24q-.683-.651-.865-.876a.822.822,0,0,1-.15-.865,8.063,8.063,0,0,1,.961-1.4q.438-.566.694-.908,1.848-2.456,1.6-3.14l-.064-.106a.624.624,0,0,0-.331-.176,1.682,1.682,0,0,0-.684-.027l-3.076.021a.4.4,0,0,0-.214.005l-.139.032-.054.027-.042.032a.475.475,0,0,0-.118.112.733.733,0,0,0-.107.187,17.438,17.438,0,0,1-1.143,2.4q-.4.662-.726,1.148a5.524,5.524,0,0,1-.555.715,3.874,3.874,0,0,1-.406.368q-.182.139-.278.118l-.182-.043a.71.71,0,0,1-.24-.262,1.172,1.172,0,0,1-.123-.417q-.032-.251-.037-.433t.005-.513q.011-.331.011-.449,0-.406.016-.881t.027-.753q.011-.278.011-.587a2.468,2.468,0,0,0-.037-.486,1.663,1.663,0,0,0-.112-.342.575.575,0,0,0-.219-.256,1.234,1.234,0,0,0-.358-.144,7.105,7.105,0,0,0-1.442-.139,7.006,7.006,0,0,0-2.552.256,1.439,1.439,0,0,0-.406.32q-.192.235-.054.256a1.309,1.309,0,0,1,.908.459l.064.128a2.043,2.043,0,0,1,.15.491,4.956,4.956,0,0,1,.1.779,8.313,8.313,0,0,1,0,1.335q-.053.555-.1.865a1.732,1.732,0,0,1-.144.5,2.116,2.116,0,0,1-.128.235.184.184,0,0,1-.053.053.8.8,0,0,1-.288.054.677.677,0,0,1-.363-.15,2.562,2.562,0,0,1-.443-.411,5.5,5.5,0,0,1-.518-.732q-.288-.47-.6-1.111l-.171-.31q-.16-.3-.438-.87T4.336,118.8a.7.7,0,0,0-.256-.342l-.053-.032a.732.732,0,0,0-.171-.091,1.134,1.134,0,0,0-.246-.069l-2.926.021a.744.744,0,0,0-.609.2l-.043.064a.346.346,0,0,0-.032.171.85.85,0,0,0,.064.288q.641,1.506,1.394,2.9t1.308,2.253q.555.854,1.132,1.613t.763.972q.187.214.294.32l.267.256a6.337,6.337,0,0,0,.753.614,12.844,12.844,0,0,0,1.1.705,5.965,5.965,0,0,0,1.4.566,4.855,4.855,0,0,0,1.559.176h1.228a.851.851,0,0,0,.566-.235l.042-.054a.708.708,0,0,0,.08-.2,1.085,1.085,0,0,0,.037-.294,3.519,3.519,0,0,1,.069-.828,2.176,2.176,0,0,1,.182-.555,1.365,1.365,0,0,1,.23-.315.928.928,0,0,1,.182-.155.692.692,0,0,1,.085-.037.678.678,0,0,1,.6.166,3.544,3.544,0,0,1,.652.619q.3.369.731.828a5.025,5.025,0,0,0,.748.684l.214.128a2.6,2.6,0,0,0,.556.235,1.2,1.2,0,0,0,.6.053l2.734-.043a1.239,1.239,0,0,0,.63-.134.529.529,0,0,0,.267-.294.827.827,0,0,0,.005-.363A1.341,1.341,0,0,0,20.4,128.317Z"
                      transform="translate(0 -117.748)" fill="#fff"></path>
            </g>
        </g>
    </symbol>

    <symbol id='icon-fb' viewBox="0 0 48 48">
        <g transform="translate(-224 -1135)">
            <circle cx="24" cy="24" r="24" transform="translate(224 1135)" fill="#4267b2"></circle>
            <g transform="translate(244.573 1152.28)">
                <path d="M116.284,3.049V5.216H114.7v2.65h1.588V15.74h3.261V7.866h2.188s.2-1.271.3-2.66h-2.48V3.395a.77.77,0,0,1,.707-.635h1.777V0h-2.416C116.2,0,116.284,2.653,116.284,3.049Z"
                      transform="translate(-114.696 -0.001)" fill="#fff"></path>
            </g>
        </g>
    </symbol>

    <symbol id='icon-instagram' viewBox="0 0 48 48">
        <defs>
            <linearGradient id="linear-gradient" x1="1" y1="0.127" x2="0.116" y2="0.838"
                            gradientUnits="objectBoundingBox">
                <stop offset="0" stop-color="#5b58c9"></stop>
                <stop offset="0.286" stop-color="#bf3077"></stop>
                <stop offset="0.534" stop-color="#da5c60"></stop>
                <stop offset="1" stop-color="#f9d67a"></stop>
            </linearGradient>
        </defs>
        <g transform="translate(-224 -1135)">
            <circle cx="24" cy="24" r="24" transform="translate(224 1135)" fill="url(#linear-gradient)"></circle>
            <g transform="translate(238.472 1150.473)">
                <path d="M13.117,0H5A5.005,5.005,0,0,0,0,5v8.118a5.005,5.005,0,0,0,5,5h8.118a5.005,5.005,0,0,0,5-5V5A5.005,5.005,0,0,0,13.117,0Zm3.392,13.117a3.4,3.4,0,0,1-3.392,3.392H5a3.4,3.4,0,0,1-3.392-3.392V5A3.4,3.4,0,0,1,5,1.607h8.118A3.4,3.4,0,0,1,16.509,5v8.118Z"
                      fill="#fff"></path>
                <path d="M45.636,40.97A4.668,4.668,0,1,0,50.3,45.638,4.673,4.673,0,0,0,45.636,40.97Zm0,7.729A3.061,3.061,0,1,1,48.7,45.638,3.064,3.064,0,0,1,45.636,48.7Z"
                      transform="translate(-36.578 -36.58)" fill="#fff"></path>
                <path d="M120.1,28.251a1.178,1.178,0,1,0,.834.345A1.183,1.183,0,0,0,120.1,28.251Z"
                      transform="translate(-106.177 -25.224)" fill="#fff"></path>
            </g>
        </g>
    </symbol>

    <symbol id='icon-train' viewBox="0 0 33.298 13.319">
        <path d="M250.156,139.33h2.22a.555.555,0,0,0,.555-.555v-3.33a.555.555,0,0,0-.555-.555h-2.22a.555.555,0,0,0-.555.555v3.33A.555.555,0,0,0,250.156,139.33Zm.555-3.33h1.11v2.22h-1.11Zm0,0"
              transform="translate(-235.172 -132.671)"
        />
        <path d="M137.173,139.33a.555.555,0,0,0,.555-.555v-3.33a.555.555,0,0,0-.555-.555h-2.22a.555.555,0,0,0-.555.555v3.33a.555.555,0,0,0,.555.555ZM135.509,136h1.11v2.22h-1.11Zm0,0"
              transform="translate(-126.629 -132.671)"
        />
        <path d="M60.376,139.33a.555.555,0,0,0,.555-.555v-3.33a.555.555,0,0,0-.555-.555h-2.22a.555.555,0,0,0-.555.555v3.33a.555.555,0,0,0,.555.555ZM58.711,136h1.11v2.22h-1.11Zm0,0"
              transform="translate(-54.272 -132.671)"
        />
        <path d="M2.22,138.775v-3.33a.555.555,0,0,0-.555-.555H0V136H1.11v2.22H0v1.11H1.665A.555.555,0,0,0,2.22,138.775Zm0,0"
              transform="translate(0 -132.671)"
        />
        <path d="M364.8,192.488h2.22v1.11H364.8Zm0,0"
              transform="translate(-343.712 -186.939)"
        />
        <path d="M460.8,230.887h1.11V232H460.8Zm0,0"
              transform="translate(-434.162 -223.117)"
        />
        <path d="M518.4,230.887h1.11V232H518.4Zm0,0"
              transform="translate(-488.43 -223.117)"
        />
        <path d="M15.242,96.488H0V97.6H12.209v6.66H0v1.11H12.209v1.11H0v1.11H2.775a2.2,2.2,0,0,0,.308,1.11H0v1.11H33.3V108.7H26.885a2.2,2.2,0,0,0,.308-1.11H29.72a3.578,3.578,0,0,0,2.291-6.327l-3.718-3.1a7.23,7.23,0,0,0-4.62-1.673h-8.43ZM4.995,108.7a1.11,1.11,0,0,1-1.11-1.11H6.1A1.11,1.11,0,0,1,4.995,108.7Zm3.33,0a1.11,1.11,0,0,1-1.11-1.11h2.22A1.11,1.11,0,0,1,8.325,108.7Zm4.995-3.33h5.55v1.11h-5.55Zm-3.083,3.33a2.2,2.2,0,0,0,.308-1.11H22.754a2.2,2.2,0,0,0,.309,1.11Zm14.738,0a1.11,1.11,0,0,1-1.11-1.11h2.22A1.11,1.11,0,0,1,24.974,108.7Zm3.573-8.879,2.664,2.22H25.973a.555.555,0,0,1-.427-.2l-1.682-2.02h4.683Zm-8.567,5.55h5.55v-1.11h-5.55V97.6h3.693a6.118,6.118,0,0,1,3.508,1.11H23.864a1.11,1.11,0,0,0-.852,1.82l1.685,2.02a1.661,1.661,0,0,0,1.277.6h6.049a2.439,2.439,0,0,1-2.3,3.33H19.979Zm-1.11-7.77v6.66h-5.55V97.6Z"
              transform="translate(0 -96.488)"
        />
    </symbol>

    <symbol id='icon-bus' viewBox="0 0 24 24">
        <path d="M6 24h-2c-.552 0-1-.448-1-1v-1c-.53 0-1.039-.211-1.414-.586s-.586-.884-.586-1.414v-8c-.552 0-1-.448-1-1v-3c0-.552.448-1 1-1v-4c0-1.657 1.343-3 3-3h16c1.657 0 3 1.343 3 3v4c.552 0 1 .448 1 1v3c0 .552-.448 1-1 1v8c0 .53-.211 1.039-.586 1.414s-.884.586-1.414.586v1c0 .552-.448 1-1 1h-2c-.552 0-1-.448-1-1v-1h-10v1c0 .552-.448 1-1 1zm-1.5-7c.828 0 1.5.672 1.5 1.5s-.672 1.5-1.5 1.5-1.5-.672-1.5-1.5.672-1.5 1.5-1.5zm15 0c.828 0 1.5.672 1.5 1.5s-.672 1.5-1.5 1.5-1.5-.672-1.5-1.5.672-1.5 1.5-1.5zm-5 1h-5c-.276 0-.5.224-.5.5s.224.5.5.5h5c.276 0 .5-.224.5-.5s-.224-.5-.5-.5zm6.5-12.5c0-.276-.224-.5-.5-.5h-17c-.276 0-.5.224-.5.5v8.5s3.098 1 9 1 9-1 9-1v-8.5zm-5-3.5h-8v1h8v-1z"/>
    </symbol>

    <symbol id='icon-zabor' viewBox="0 0 22.974 21.967">
        <g transform="translate(0 -6.247)">
            <g transform="translate(0 6.247)">
                <rect width="1.904" height="2.188" transform="translate(6.206 6.28)" class="color-fill"/>
                <rect width="1.904" height="2.188" transform="translate(14.864 6.28)" class="color-fill"/>
                <rect width="1.904" height="2.188" transform="translate(6.206 16.781)" class="color-fill"/>
                <rect width="1.904" height="2.188" transform="translate(14.864 16.781)" class="color-fill"/>
                <path d="M3.3,6.516a.547.547,0,0,0-.942,0L.077,10.372A.537.537,0,0,0,0,10.65V27.666a.547.547,0,0,0,.547.547H5.112a.547.547,0,0,0,.546-.547V10.65a.546.546,0,0,0-.076-.278Z"
                      transform="translate(0 -6.247)" class="color-fill"/>
                <path d="M110.694,6.729a.568.568,0,0,0-.941,0l-2.283,3.857a.546.546,0,0,0-.076.278V27.88a.547.547,0,0,0,.546.547h4.567a.547.547,0,0,0,.546-.547V10.864a.542.542,0,0,0-.076-.278Z"
                      transform="translate(-98.737 -6.461)"
                      class="color-fill"/>
                <path d="M220.384,10.586,218.1,6.729a.569.569,0,0,0-.942,0l-2.282,3.857a.545.545,0,0,0-.076.278V27.88a.547.547,0,0,0,.546.547h4.565a.548.548,0,0,0,.547-.547V10.864A.538.538,0,0,0,220.384,10.586Z"
                      transform="translate(-197.487 -6.461)"
                      class="color-fill"/>
            </g>
        </g>
    </symbol>

    <symbol id='icon-lamp' viewBox="0 0 24 24">
        <path d="M12.434 24h-.894c-.235 0-.461-.079-.616-.218l-1.187-.782h4.5l-1.188.782c-.154.139-.38.218-.615.218zm1.845-2h-4.558c-.276 0-.5-.223-.5-.5 0-.276.224-.5.5-.5h4.558c.276 0 .5.224.5.5 0 .277-.224.5-.5.5zm-3.054-2h-2.011c-.016-3.993-3.214-5.637-3.214-9.254 0-3.537 2.837-5.773 6.068-5.746 3.287.053 5.934 2.344 5.934 5.747 0 3.626-3.189 5.178-3.215 9.253h-2.015c.152-4.705 3.229-6.902 3.229-9.255 0-2.336-1.829-3.745-3.992-3.745-1.973 0-4.009 1.232-4.009 3.754 0 2.347 3.189 5.003 3.225 9.246zm8.514-7.229l2.699 1.224-.827 1.822-2.596-1.177c.301-.6.55-1.215.724-1.869zm-15.477 0c.173.664.415 1.261.719 1.87l-2.592 1.176-.827-1.822 2.7-1.224zm7.748-1.771h2.235l-1.133 4.51h-1.745l.638-2.51h-2.264l1.199-4.536h1.76l-.69 2.536zm10.99 0h-3.003c.021-.67-.04-1.345-.185-2h3.188v2zm-18.997 0h-3.003v-2h3.187c-.143.654-.203 1.326-.184 1.995v.005zm14.04-5.428l2.485-1.763 1.158 1.631-2.505 1.777c-.292-.582-.67-1.132-1.138-1.645zm-12.087-.001c-.46.503-.837 1.05-1.138 1.645l-2.503-1.776 1.157-1.631 2.484 1.762zm8.869-2.092l1.327-2.69 1.793.885-1.327 2.69c-.557-.367-1.161-.664-1.793-.885zm-5.651-.002c-.631.22-1.236.516-1.794.884l-1.326-2.687 1.794-.885 1.326 2.688zm3.826-.416c-.668-.078-1.309-.082-2-.003v-3.058h2v3.061z"/>
    </symbol>

    <symbol id='icon-security' viewBox="0 0 24 24">
        <path d="M20.377 11.082c-.06 1.929-2.229 3.126-8.409 3.126-6.193 0-8.358-1.203-8.409-3.139 1.508 0 4.379-1.958 8.409-1.958 3.927-.001 7.144 1.971 8.409 1.971zm-8.408 4.09c-2.062 0-3.74-.131-5.078-.397.062.555.469 3.322 2.409 3.322 1.721 0 1.673-1.316 2.721-1.316 1.047 0 1.169 1.316 2.852 1.316 2.09 0 2.46-3.063 2.494-3.389-1.387.311-3.169.464-5.398.464zm6.405-.741c-.04 2.171-.717 4.769-2.28 6.437-1.048 1.119-2.377 1.687-3.949 1.687-1.575 0-2.898-.533-3.931-1.582-1.646-1.673-2.302-4.345-2.396-6.461-.523-.158-1.01-.347-1.484-.628-.016 2.472.704 5.942 2.821 8.094 1.321 1.341 3 2.022 4.99 2.022 1.972 0 3.712-.745 5.033-2.153 2.131-2.273 2.76-5.679 2.661-8.111-.459.308-.944.521-1.465.695zm-6.237-10.984l-.313.623-.701.1.507.485-.119.685.626-.324.627.324-.12-.685.507-.485-.7-.1-.314-.623zm7.211-.206s-2.537-.686-7.348-3.241c-4.812 2.555-7.348 3.241-7.348 3.241s-1.295 2.4-3.652 5.016l2.266 1.908c1.533-.165 4.64-2.082 8.734-2.082s7.201 1.917 8.734 2.083l2.266-1.909c-2.357-2.616-3.652-5.016-3.652-5.016zm-6.345 3.214c-.526.131-.605.188-.875.402-.269-.214-.349-.271-.875-.402-.731-.183-1.151-.656-1.151-1.299 0-.359.147-.691.318-1.146.192-.513.083-.675-.119-.882l-.171-.176.987-.819c.098.098.235.278.486.278.248 0 .416-.175.528-.271.102.09.268.271.523.271.248 0 .381-.171.49-.281l.983.823-.172.176c-.202.207-.311.369-.119.882.17.455.318.786.318 1.146 0 .641-.42 1.115-1.151 1.298z"/>
    </symbol>

    <!-- Compass -->
    <symbol id="icon-compass" viewBox="0 0 44.854 44.854">
        <path d="M22.427,0A22.427,22.427,0,1,0,44.854,22.427,22.427,22.427,0,0,0,22.427,0Zm0,43.358A20.932,20.932,0,1,1,43.358,22.427,20.932,20.932,0,0,1,22.427,43.358Zm0,0"
              transform="translate(0)"/>
        <path d="M58.689,40A18.689,18.689,0,1,0,77.378,58.689,18.689,18.689,0,0,0,58.689,40Zm0,35.883A17.194,17.194,0,1,1,75.883,58.689,17.194,17.194,0,0,1,58.689,75.883Zm0,0"
              transform="translate(-36.262 -36.262)"/>
        <path d="M142.076,120.059a.747.747,0,0,0-.9-.12l-13.346,7.617c-.008.005-.012.014-.02.019a2.238,2.238,0,0,0-.239.239c0,.008-.014.012-.019.02l-7.619,13.346a.748.748,0,0,0,1.02,1.02l13.344-7.617c.008-.005.012-.014.02-.019a2.238,2.238,0,0,0,.239-.239c0-.008.014-.012.019-.02l7.619-13.344A.748.748,0,0,0,142.076,120.059Zm-19.484,19.484,5.776-10.115,4.343,4.339Zm11.173-6.829-4.336-4.336,10.115-5.776Zm0,0"
              transform="translate(-108.639 -108.643)"/>
        <path d="M75.738,232h-2.99a.748.748,0,1,0,0,1.5h2.99a.748.748,0,0,0,0-1.5Zm0,0"
              transform="translate(-65.272 -210.321)"/>
        <path d="M363.738,232h-2.99a.748.748,0,1,0,0,1.5h2.99a.748.748,0,1,0,0-1.5Zm0,0"
              transform="translate(-326.36 -210.321)"/>
        <path d="M232.748,76.485a.748.748,0,0,0,.748-.748v-2.99a.748.748,0,1,0-1.5,0v2.99A.748.748,0,0,0,232.748,76.485Zm0,0"
              transform="translate(-210.321 -65.272)"/>
        <path d="M232.748,360a.748.748,0,0,0-.748.748v2.99a.748.748,0,1,0,1.5,0v-2.99A.748.748,0,0,0,232.748,360Zm0,0"
              transform="translate(-210.321 -326.36)"/>
    </symbol>

    <!-- Betonniy Pliti -->
    <symbol id="icon-betonPlit" viewBox="0 0 32.279 14.797">
        <path d="M1124.235,447.06l19.645-6.654,12.634,3.666v3.666l-20.391,7.464-11.888-3.777Z"
              transform="translate(-1124.235 -440.406)" class="color-fill"/>
    </symbol>

    <!-- Bitiy Kirpich -->
    <symbol id="icon-bitiyKirpich" viewBox="0 0 26.034 16.567">
        <g transform="translate(0 -85.333)">
            <g transform="translate(2.367 88.883)">
                <g transform="translate(0 0)">
                    <path d="M49.175,149.333H43.258a.592.592,0,0,0-.592.592v1.183a.592.592,0,0,0,.592.592h5.917a.592.592,0,0,0,.592-.592v-1.183A.592.592,0,0,0,49.175,149.333Z"
                          transform="translate(-42.666 -149.333)" class="color-fill"/>
                </g>
            </g>
            <g transform="translate(10.65 88.883)">
                <g transform="translate(0 0)">
                    <path d="M198.509,149.333h-5.917a.592.592,0,0,0-.592.592v1.183a.592.592,0,0,0,.592.592h5.917a.592.592,0,0,0,.592-.592v-1.183A.592.592,0,0,0,198.509,149.333Z"
                          transform="translate(-192 -149.333)" class="color-fill"/>
                </g>
            </g>
            <g transform="translate(16.567 92.433)">
                <g transform="translate(0 0)">
                    <path d="M305.176,213.333h-5.917a.592.592,0,0,0-.592.592v1.183a.592.592,0,0,0,.592.592h5.917a.592.592,0,0,0,.592-.592v-1.183A.592.592,0,0,0,305.176,213.333Z"
                          transform="translate(-298.667 -213.333)" class="color-fill"/>
                </g>
            </g>
            <g transform="translate(18.934 95.983)">
                <g transform="translate(0 0)">
                    <path d="M347.842,277.333h-5.917a.592.592,0,0,0-.592.592v1.183a.592.592,0,0,0,.592.592h5.917a.592.592,0,0,0,.592-.592v-1.183A.592.592,0,0,0,347.842,277.333Z"
                          transform="translate(-341.333 -277.333)" class="color-fill"/>
                </g>
            </g>
            <g transform="translate(0 99.534)">
                <g transform="translate(0 0)">
                    <path d="M6.509,341.333H.592a.592.592,0,0,0-.592.592v1.183a.592.592,0,0,0,.592.592H6.509a.592.592,0,0,0,.592-.592v-1.183A.592.592,0,0,0,6.509,341.333Z"
                          transform="translate(0 -341.333)" class="color-fill"/>
                </g>
            </g>
            <g transform="translate(10.65 95.983)">
                <g transform="translate(0 0)">
                    <path d="M198.509,277.333h-5.917a.592.592,0,0,0-.592.592v1.183a.592.592,0,0,0,.592.592h5.917a.592.592,0,0,0,.592-.592v-1.183A.592.592,0,0,0,198.509,277.333Z"
                          transform="translate(-192 -277.333)" class="color-fill"/>
                </g>
            </g>
            <g transform="translate(16.567 99.534)">
                <g transform="translate(0 0)">
                    <path d="M305.176,341.333h-5.917a.592.592,0,0,0-.592.592v1.183a.592.592,0,0,0,.592.592h5.917a.592.592,0,0,0,.592-.592v-1.183A.592.592,0,0,0,305.176,341.333Z"
                          transform="translate(-298.667 -341.333)" class="color-fill"/>
                </g>
            </g>
            <g transform="translate(8.284 99.534)">
                <g transform="translate(0 0)">
                    <path d="M155.842,341.333h-5.917a.592.592,0,0,0-.592.592v1.183a.592.592,0,0,0,.592.592h5.917a.592.592,0,0,0,.592-.592v-1.183A.592.592,0,0,0,155.842,341.333Z"
                          transform="translate(-149.333 -341.333)" class="color-fill"/>
                </g>
            </g>
            <g transform="translate(2.367 95.983)">
                <g transform="translate(0 0)">
                    <path d="M49.175,277.333H43.258a.592.592,0,0,0-.592.592v1.183a.592.592,0,0,0,.592.592h5.917a.592.592,0,0,0,.592-.592v-1.183A.592.592,0,0,0,49.175,277.333Z"
                          transform="translate(-42.666 -277.333)" class="color-fill"/>
                </g>
            </g>
            <g transform="translate(8.284 92.433)">
                <g transform="translate(0 0)">
                    <path d="M155.842,213.333h-5.917a.592.592,0,0,0-.592.592v1.183a.592.592,0,0,0,.592.592h5.917a.592.592,0,0,0,.592-.592v-1.183A.592.592,0,0,0,155.842,213.333Z"
                          transform="translate(-149.333 -213.333)" class="color-fill"/>
                </g>
            </g>
            <g transform="translate(8.284 85.333)">
                <g transform="translate(0 0)">
                    <path d="M155.842,85.333h-5.917a.592.592,0,0,0-.592.592v1.183a.592.592,0,0,0,.592.592h5.917a.592.592,0,0,0,.592-.592V85.925A.592.592,0,0,0,155.842,85.333Z"
                          transform="translate(-149.333 -85.333)" class="color-fill"/>
                </g>
            </g>
        </g>
    </symbol>

    <!-- Sheben -->
    <symbol id="icon-sheben" viewBox="0 0 27.931 19.233">
        <g transform="translate(0 -64.055)">
            <path d="M.993,282.351l.529.052a1.557,1.557,0,0,0,1.436-.8l.1-.208a1.757,1.757,0,0,0,0-1.564,1.474,1.474,0,0,0-1.275-.577,2.65,2.65,0,0,0-1.31.546A2.3,2.3,0,0,0,0,281.255,1.127,1.127,0,0,0,.993,282.351Z"
                  transform="translate(0 -206.082)"
                  class="color-fill"/>
            <path d="M70.239,293.68a3.17,3.17,0,0,1,1.252,1.038l1.232,1.727a1.791,1.791,0,0,0,1.566.665l1.161-.173a1.429,1.429,0,0,0,1.13-1.134l.315-2.172a1.553,1.553,0,0,0-.73-1.469l-2.042-1.126a2.317,2.317,0,0,0-1.791-.089l-.644.275a3.884,3.884,0,0,0-1.463,1.227l-.111.17C69.812,293.079,69.869,293.556,70.239,293.68Z"
                  transform="translate(-66.273 -217.035)" class="color-fill"/>
            <path d="M47.244,202.076l-1.517-.121a1.423,1.423,0,0,0-1.349.731,1.836,1.836,0,0,0,.23,1.619l.071.1c.321.444.768,1.131.992,1.525a1.1,1.1,0,0,0,1.337.355l.62-.242a4.262,4.262,0,0,0,1.514-1.095,1.353,1.353,0,0,0,0-1.541l-.319-.44A2.465,2.465,0,0,0,47.244,202.076Z"
                  transform="translate(-41.97 -132.812)" class="color-fill"/>
            <path d="M.46,225.377A2.666,2.666,0,0,1,1.7,224.8c.428-.069.548-.509.264-.979l-.21-.349a2.077,2.077,0,0,0-1.135-.948c-.341-.051-.619.356-.619.9v1.4C0,225.38.207,225.626.46,225.377Z"
                  transform="translate(0 -152.309)"
                  class="color-fill"/>
            <path d="M148.3,247.989a2.032,2.032,0,0,0-1.595.641.767.767,0,0,0,.282,1.2l2.711,1.415a2.806,2.806,0,0,1,1.159,1.132,1.014,1.014,0,0,0,1.231.39l2.016-.592a.652.652,0,0,0,.364-1.082l-1.4-1.888a2.579,2.579,0,0,0-1.586-.9Z"
                  transform="translate(-138.877 -176.443)" class="color-fill"/>
            <path d="M212.911,345.447l1.511-.007a2.831,2.831,0,0,0,1.708-.7l1.27-1.25a1.1,1.1,0,0,0,.072-1.466l-2.546-3.051a1.721,1.721,0,0,0-1.6-.515l-3.1.807a1.648,1.648,0,0,0-1.117,1.237l-.085.553a2.4,2.4,0,0,0,.512,1.73l1.717,1.924A2.527,2.527,0,0,0,212.911,345.447Z"
                  transform="translate(-198.102 -262.159)" class="color-fill"/>
            <path d="M316.908,286.506a.838.838,0,0,0,1.226.037l1.161-.915a.766.766,0,0,0,.009-1.247l-.754-.612a1.681,1.681,0,0,0-1.665-.181l-.094.047c-.49.246-.716.727-.5,1.067a1.408,1.408,0,0,1,.283.884A1.479,1.479,0,0,0,316.908,286.506Z"
                  transform="translate(-299.715 -210.056)" class="color-fill"/>
            <path d="M360.794,333.2l.414.08a4.172,4.172,0,0,0,1.705-.04,1.236,1.236,0,0,0,.678-1.226l-.045-.945a1.847,1.847,0,0,0-.948-1.428l-1.645-.789a1.737,1.737,0,0,0-1.678.193l-.931.747a.955.955,0,0,0-.125,1.378l.942,1.087A3.38,3.38,0,0,0,360.794,333.2Z"
                  transform="translate(-339.311 -252.965)" class="color-fill"/>
            <path d="M411.046,247.9l-1.936-.494a2.469,2.469,0,0,0-1.8.33l-1.037.738a2.691,2.691,0,0,0-.962,1.525,1.305,1.305,0,0,0,.774,1.323l1.482.612a2.84,2.84,0,0,0,1.849.01l1.665-.632a1.68,1.68,0,0,0,1.009-1.367v-.795A1.448,1.448,0,0,0,411.046,247.9Z"
                  transform="translate(-384.164 -175.845)" class="color-fill"/>
            <path d="M298.393,222.316c.462-.3.4-.645-.129-.776l-2.241-.552a2.383,2.383,0,0,0-1.765.363l-2.162,1.634c-.438.331-.72.805-.627,1.053s.576.263,1.073.032l1.077-.5c.5-.231,1.024-.329,1.17-.217s.616.448,1.045.748.865.223.97-.172a2.646,2.646,0,0,1,1.03-1.255Z"
                  transform="translate(-276.25 -150.814)" class="color-fill"/>
            <path d="M403.714,157.394l-3.758-.808a1.436,1.436,0,0,0-1.468.667l-.8,1.469a.728.728,0,0,0,.493,1.109l1.6.381c.534.127,1.4.361,1.925.52l2.034.591a.763.763,0,0,0,1.037-.709V158.6A1.38,1.38,0,0,0,403.714,157.394Z"
                  transform="translate(-376.841 -89.79)" class="color-fill"/>
            <path d="M264.135,138.726l-.2-.729a2.417,2.417,0,0,0-1.181-1.366l-1.4-.623a2.483,2.483,0,0,0-1.813.02l-.6.285a1.554,1.554,0,0,0-.822,1.42l.051.63a.783.783,0,0,0,1.038.715l.493-.144a4.175,4.175,0,0,1,1.92-.015l1.83.5C263.972,139.568,264.284,139.255,264.135,138.726Z"
                  transform="translate(-244.644 -70.157)" class="color-fill"/>
            <path d="M262.3,203.721l-.625.217a1.325,1.325,0,0,0-.942,1.013,1.784,1.784,0,0,0,.451,1.122c.248.24.8.152,1.223-.2l1.689-1.385c.424-.348.406-.738-.041-.866A3.433,3.433,0,0,0,262.3,203.721Z"
                  transform="translate(-247.132 -134.331)"
                  class="color-fill"/>
            <path d="M150.6,189.765l-3.947,1.015c-.531.137-.727.476-.435.755a3.069,3.069,0,0,0,1.523.617l2.479.277a1.007,1.007,0,0,0,1.107-.88l.122-1.042A.639.639,0,0,0,150.6,189.765Z"
                  transform="translate(-138.468 -121.234)"
                  class="color-fill"/>
            <path d="M135.014,105.881a1.592,1.592,0,0,0-1.215-1.118l-1.781-.266a1.311,1.311,0,0,0-1.348.782l-1.119,2.879a1.721,1.721,0,0,0-.14,1.2c.122.15.652.147,1.179-.008l3.946-1.154a1.067,1.067,0,0,0,.729-1.251Z"
                  transform="translate(-122.603 -40.43)"
                  class="color-fill"/>
            <path d="M380.577,144.683l-.282.083a1.1,1.1,0,0,0-.762,1.236c.107.525.454.588.771.14l.655-.927C381.275,144.768,381.1,144.528,380.577,144.683Z"
                  transform="translate(-359.719 -78.487)" class="color-fill"/>
        </g>
    </symbol>

    <!-- Asphalt Kroshka -->
    <symbol id="icon-asphaltKroshka" viewBox="0 0 25.494 19.831">
        <path d="M15.668,65.8a3.187,3.187,0,1,0-3.187,3.187A3.186,3.186,0,0,0,15.668,65.8Zm-4.239,0a1.053,1.053,0,1,1,1.052,1.053A1.052,1.052,0,0,1,11.429,65.8Z"
              transform="translate(-6.877 -49.158)"/>
        <path d="M63,33.634v6.5a6.276,6.276,0,0,1,1.052-.043,3.811,3.811,0,0,1,3.426,1.7,1.362,1.362,0,0,1,.985-.423H71.65v-4.78l-1.935-2.959Zm7.284,5.008H66.642V35h2.731l.91,1.451Z"
              transform="translate(-46.611 -27.716)"
        />
        <path d="M1.337,30.418s7.512,1.393,8.508,5.008h3.442s.427-2.276,2.191-2.9V24.955h8.009l1.323-1.821H14.568l-1.252,2.731H0v1.821H1.366Z"
              transform="translate(0 -19.947)"/>
        <path d="M82.705,66.885a.5.5,0,0,0-.455.455v.91a.455.455,0,0,0,.455.455h3.187a.456.456,0,0,0,.455-.455v-.91a.456.456,0,0,0-.455-.455Z"
              transform="translate(-60.854 -52.317)"/>
        <path d="M61.171,65.8c0-.043,0-.085-.006-.127a3.106,3.106,0,1,0,.006.127Zm-4.239,0a1.053,1.053,0,1,1,1.052,1.053A1.052,1.052,0,0,1,56.932,65.8Z"
              transform="translate(-40.543 -49.158)"/>
        <path d="M18.038,13.853,17.563,12.7H16.2L15,10.884H13.238L11.36,13.16H9.918l-1.29,1.366H7.642L6.125,15.892H17.051Z"
              transform="translate(-4.532 -10.884)"/>
    </symbol>

    <!-- Asphalt -->
    <symbol id="icon-asphalt" viewBox="0 0 29.999 17.912">
        <g transform="translate(0 -106.273)">
            <path d="M27.4,113.989a3.179,3.179,0,0,1,.032.427.886.886,0,0,1-.221.6,5.738,5.738,0,0,0-10.37,1.356H10.58a3.331,3.331,0,0,0-.318-.707l6.264.007a5.445,5.445,0,0,1,2.058-2.836H15.842l-2.118-6.172a.514.514,0,0,0-.5-.387H7.739a.514.514,0,0,0-.514.514v6.387a.507.507,0,0,0,.043.2v.61H6.045a3.391,3.391,0,0,0-2.426,1.019,4.647,4.647,0,1,0,5.676,4.53c0-.093-.008-.184-.014-.276h.453A4.272,4.272,0,0,1,9.2,121.9H17.36a7.193,7.193,0,0,1-1.4-2.636h.764a5.739,5.739,0,0,0,10.931.924,3.18,3.18,0,0,0-.257-6.2ZM4.648,122.642a3.1,3.1,0,1,1,3.1-3.105A3.108,3.108,0,0,1,4.648,122.642Zm3.605-9.982V107.3h4.573l1.924,5.358Zm14.076,1.179a4.193,4.193,0,0,1,3.44,1.8,17.969,17.969,0,0,1-3.345.113,2.462,2.462,0,0,0-.347-.026H19.557a2.446,2.446,0,0,0-.813.14A4.2,4.2,0,0,1,22.329,113.839Zm0,8.395a4.206,4.206,0,0,1-4.015-2.973H19.1a2.159,2.159,0,0,0,.217-.012c.08.007.16.012.242.012h2.521c.087,0,.174-.006.259-.015a3.165,3.165,0,0,0,2.358,1.053H25.86A4.2,4.2,0,0,1,22.329,122.234Z"/>
        </g>
    </symbol>

    <!-- Gruntovka -->
    <symbol id="icon-gruntovka" viewBox="0 0 18.04 18.28">
        <g transform="translate(-1.98 -3.683)">
            <g transform="translate(0.019 0)">
                <g transform="translate(0 0)">
                    <path d="M53.195,406.049a9.752,9.752,0,0,1-4.184.271,7.843,7.843,0,0,1-3.278-1.177v4.244c0,.185.119.341.259.341H63.514c.14,0,.259-.156.259-.341v-.926c-.123-.119-1.534-1.416-5.421-2.472A9.364,9.364,0,0,0,53.195,406.049Z"
                          transform="translate(-43.772 -387.765)" class="color-fill"/>
                    <path d="M53.195,309.228a9.751,9.751,0,0,1-4.184.271,7.844,7.844,0,0,1-3.278-1.177V311.3c0,.009.009.017.011.026.017.052.375,1.01,3.4,1.549a8.976,8.976,0,0,0,3.872-.264,10.145,10.145,0,0,1,5.536-.051,16.5,16.5,0,0,1,5.215,2.228V311.64c-.125-.12-1.537-1.417-5.421-2.472A9.371,9.371,0,0,0,53.195,309.228Z"
                          transform="translate(-43.772 -295.097)" class="color-fill"/>
                    <path d="M53.195,203.887a9.757,9.757,0,0,1-4.184.272,7.845,7.845,0,0,1-3.278-1.177v3.348c0,.009.009.017.011.026.017.052.375,1.01,3.4,1.549a8.982,8.982,0,0,0,3.873-.264,10.147,10.147,0,0,1,5.536-.052,16.508,16.508,0,0,1,5.215,2.228V206.3c-.123-.119-1.534-1.416-5.421-2.472A9.37,9.37,0,0,0,53.195,203.887Z"
                          transform="translate(-43.772 -194.275)" class="color-fill"/>
                    <path d="M49.148,91.289a8.977,8.977,0,0,0,3.872-.264,10.144,10.144,0,0,1,5.536-.052A16.5,16.5,0,0,1,63.771,93.2V87.1c-.024-.007-.049-.011-.073-.018l-2.451-.758a10.353,10.353,0,0,0-7.278.43L53.2,87.1a11.134,11.134,0,0,1-7.465.568v2.047c0,.009.009.017.011.026C45.76,89.793,46.118,90.75,49.148,91.289Z"
                          transform="translate(-43.771 -82.178)" class="color-fill"/>
                </g>
            </g>
        </g>
    </symbol>

    <!-- Svet -->
    <symbol id="icon-svet" viewBox="0 0 23.032 24">
        <g transform="translate(-9.8)">
            <path d="M24.052,20.973v.7a1.112,1.112,0,0,1-.943,1.1l-.173.637A.793.793,0,0,1,22.17,24H20.457a.793.793,0,0,1-.765-.588l-.168-.637a1.117,1.117,0,0,1-.948-1.106v-.7a.674.674,0,0,1,.677-.677h4.123A.682.682,0,0,1,24.052,20.973Zm3.175-9.452a5.883,5.883,0,0,1-1.659,4.1,5.422,5.422,0,0,0-1.452,2.943.978.978,0,0,1-.968.825H19.479a.968.968,0,0,1-.963-.82,5.482,5.482,0,0,0-1.462-2.953,5.912,5.912,0,1,1,10.173-4.1Zm-5.244-3.58a.667.667,0,0,0-.667-.667,4.271,4.271,0,0,0-4.267,4.267.667.667,0,1,0,1.333,0,2.937,2.937,0,0,1,2.933-2.933A.664.664,0,0,0,21.983,7.941Zm-.667-4.272A.667.667,0,0,0,21.983,3V.667a.667.667,0,0,0-1.333,0V3A.667.667,0,0,0,21.316,3.669Zm-7.847,7.847a.667.667,0,0,0-.667-.667H10.467a.667.667,0,1,0,0,1.333H12.8A.664.664,0,0,0,13.469,11.516Zm18.7-.667H29.83a.667.667,0,1,0,0,1.333h2.336a.667.667,0,1,0,0-1.333ZM14.827,17.067l-1.654,1.654a.665.665,0,0,0,.938.943l1.654-1.654a.665.665,0,0,0-.938-.943Zm12.509-10.9A.666.666,0,0,0,27.8,5.97l1.654-1.654a.667.667,0,1,0-.943-.943L26.862,5.027a.665.665,0,0,0,0,.943A.677.677,0,0,0,27.336,6.163Zm-12.509-.2a.665.665,0,0,0,.938-.943L14.111,3.368a.667.667,0,1,0-.943.943ZM27.8,17.067a.667.667,0,1,0-.943.943l1.654,1.654a.665.665,0,1,0,.938-.943Z"
                  class="color-fill"/>
        </g>
    </symbol>

    <!-- Vodoem -->
    <symbol id="icon-vodoem" viewBox="0 0 23.111 14.182">
        <g transform="translate(0 -98.909)">
            <g transform="translate(0 98.909)">
                <g>
                    <path d="M20.686,100.11a5.278,5.278,0,0,0-6.7,0,3.561,3.561,0,0,1-2.425.9,3.561,3.561,0,0,1-2.426-.9,5.078,5.078,0,0,0-3.352-1.2,5.078,5.078,0,0,0-3.352,1.2,3.561,3.561,0,0,1-2.426.9V103.9a3.561,3.561,0,0,0,2.426-.9,5.078,5.078,0,0,1,3.352-1.2A5.078,5.078,0,0,1,9.13,103a3.561,3.561,0,0,0,2.426.9,3.561,3.561,0,0,0,2.425-.9,5.278,5.278,0,0,1,6.7,0,3.561,3.561,0,0,0,2.425.9V101.01A3.561,3.561,0,0,1,20.686,100.11Z"
                          transform="translate(0 -98.909)"
                          class="color-fill"/>
                </g>
            </g>
            <g transform="translate(0 108.101)">
                <g>
                    <path d="M19.759,303.446a3.719,3.719,0,0,0-4.851,0,5.077,5.077,0,0,1-3.352,1.2,5.078,5.078,0,0,1-3.352-1.2,3.562,3.562,0,0,0-2.426-.9,3.561,3.561,0,0,0-2.426.9A5.078,5.078,0,0,1,0,304.647v2.889a5.078,5.078,0,0,0,3.352-1.2,3.561,3.561,0,0,1,2.426-.9,3.561,3.561,0,0,1,2.426.9,5.078,5.078,0,0,0,3.352,1.2,5.077,5.077,0,0,0,3.352-1.2,3.719,3.719,0,0,1,4.851,0,5.077,5.077,0,0,0,3.352,1.2v-2.889A5.077,5.077,0,0,1,19.759,303.446Z"
                          transform="translate(0 -302.546)"
                          class="color-fill"/>
                </g>
            </g>
            <g transform="translate(0 103.374)">
                <g>
                    <path d="M19.759,198.718a3.719,3.719,0,0,0-4.851,0,5.077,5.077,0,0,1-3.352,1.2,5.078,5.078,0,0,1-3.352-1.2,3.561,3.561,0,0,0-2.426-.9,3.561,3.561,0,0,0-2.426.9A5.077,5.077,0,0,1,0,199.919v3.152a3.561,3.561,0,0,0,2.426-.9,5.078,5.078,0,0,1,3.352-1.2,5.078,5.078,0,0,1,3.352,1.2,3.561,3.561,0,0,0,2.426.9,3.561,3.561,0,0,0,2.425-.9,5.278,5.278,0,0,1,6.7,0,3.561,3.561,0,0,0,2.425.9v-3.152A5.077,5.077,0,0,1,19.759,198.718Z"
                          transform="translate(0 -197.818)"
                          class="color-fill"/>
                </g>
            </g>
        </g>
    </symbol>

    <!-- Hospital -->
    <symbol id="icon-hospital" viewBox="0 0 23.333 20">
        <g transform="translate(0 -16.5)">
            <path d="M22.155,21.449H16.667V17.712A1.187,1.187,0,0,0,15.488,16.5H8.013a1.245,1.245,0,0,0-1.246,1.212v3.737H1.246A1.241,1.241,0,0,0,0,22.662V35.288A1.241,1.241,0,0,0,1.246,36.5H22.155a1.184,1.184,0,0,0,1.178-1.212V22.662a1.184,1.184,0,0,0-1.178-1.212ZM8.384,18.116H15.05v3.333H8.384Zm7.475,12.525H13.333v2.525H10V30.641H7.475V27.308H10V24.783h3.333v2.525h2.525Z"
                  class="color-fill"/>
        </g>
    </symbol>

    <!-- Det Sad -->
    <symbol id="icon-detsad" viewBox="0 0 20.767 23.632">
        <g transform="translate(-31.04)">
            <path d="M346.369,377.44c-1.35,1.35-1.569,3.326-.49,4.406,1.179,1.179,3.207.71,4.406-.49,1.349-1.35,1.569-3.326.49-4.406C349.62,375.794,347.6,376.21,346.369,377.44Z"
                  transform="translate(-299.654 -358.902)"
                  class="color-fill"/>
            <path d="M36.621,381.792c1.08-1.08.86-3.056-.489-4.406-1.224-1.223-3.239-1.658-4.406-.489-1.079,1.08-.859,3.057.489,4.406C33.416,382.5,35.438,382.975,36.621,381.792Z"
                  transform="translate(0 -358.847)"
                  class="color-fill"/>
            <path d="M62.034,225.444a5.046,5.046,0,0,1,2.387.664,13.45,13.45,0,0,1,2.237-5.062,7.046,7.046,0,0,1-1.81-1.446A5.72,5.72,0,0,0,61,224.788a4.976,4.976,0,0,0,.068.786A4.017,4.017,0,0,1,62.034,225.444Z"
                  transform="translate(-28.577 -209.464)"
                  class="color-fill"/>
            <path d="M330.2,219.6a7.045,7.045,0,0,1-1.81,1.446,13.451,13.451,0,0,1,2.237,5.062,5.054,5.054,0,0,1,2.386-.662,4.035,4.035,0,0,1,.967.13,4.97,4.97,0,0,0,.068-.788A5.72,5.72,0,0,0,330.2,219.6Z"
                  transform="translate(-283.627 -209.464)"
                  class="color-fill"/>
            <path d="M167.826,263.287a6.682,6.682,0,0,1-4.022,0,12.035,12.035,0,0,0-2.353,5.365,4.748,4.748,0,0,1,1.136,5.586,10.124,10.124,0,0,0,6.455,0,4.75,4.75,0,0,1,1.136-5.586A12.033,12.033,0,0,0,167.826,263.287Zm-1.319,7.326h-1.385v-1.385h1.385Zm0-2.769h-1.385v-1.385h1.385Z"
                  transform="translate(-124.391 -251.135)"
                  class="color-fill"/>
            <path d="M78.769,5.539a5.539,5.539,0,1,0,11.077,0,2.769,2.769,0,1,0-2.22-4.41,5.442,5.442,0,0,0-6.637,0,2.766,2.766,0,1,0-2.22,4.41Zm7.616-2.077H87.77V4.846H86.385Zm.692,3.462C87.077,8.088,85.861,9,84.308,9s-2.769-.912-2.769-2.077,1.216-2.077,2.769-2.077S87.077,5.758,87.077,6.923ZM80.846,3.462h1.385V4.846H80.846Z"
                  transform="translate(-42.885)"
                  class="color-fill"/>
            <ellipse cx="1.385" cy="0.692" rx="1.385"
                     ry="0.692"
                     transform="translate(40.039 6.231)"
                     class="color-fill"/>
        </g>
    </symbol>

    <!-- School -->
    <symbol id="icon-school" viewBox="0 0 22.308 20.576">
        <g transform="translate(0 -18.463)">
            <path d="M21.962,23.151a1.768,1.768,0,0,0-.791-.576,2.158,2.158,0,0,1-.067.764L17.086,36.561a.963.963,0,0,1-.469.556,1.486,1.486,0,0,1-.75.208H3.5q-1.607,0-1.929-.938a.611.611,0,0,1,.014-.576.59.59,0,0,1,.509-.2H13.737a2.469,2.469,0,0,0,1.721-.462,5.231,5.231,0,0,0,.958-2.056l3.67-12.137a1.911,1.911,0,0,0-.241-1.741,1.765,1.765,0,0,0-1.527-.75H8.124a3.725,3.725,0,0,0-.683.12l.013-.04a2.8,2.8,0,0,0-.636-.074.9.9,0,0,0-.482.154,1.551,1.551,0,0,0-.355.315,2.306,2.306,0,0,0-.261.429q-.127.261-.214.482t-.2.469a3.019,3.019,0,0,1-.221.408q-.08.107-.228.281t-.241.308a.754.754,0,0,0-.12.241.872.872,0,0,0,.027.355,1.1,1.1,0,0,1,.04.341,5.079,5.079,0,0,1-.368,1.293,5.522,5.522,0,0,1-.569,1.132q-.054.067-.295.3a1.072,1.072,0,0,0-.295.408q-.054.067-.007.375a1.934,1.934,0,0,1,.034.429A5.488,5.488,0,0,1,2.726,27.4a8.2,8.2,0,0,1-.563,1.232,2.2,2.2,0,0,1-.228.308,1.127,1.127,0,0,0-.228.375,1.181,1.181,0,0,0,.007.375,1.048,1.048,0,0,1-.007.4,7.271,7.271,0,0,1-.4,1.226,8.944,8.944,0,0,1-.6,1.226,3.224,3.224,0,0,1-.221.315,3.269,3.269,0,0,0-.221.315.834.834,0,0,0-.107.281.666.666,0,0,0,.04.261A.743.743,0,0,1,.234,34q-.014.187-.054.5t-.04.361a2.43,2.43,0,0,0,.027,1.7A3.764,3.764,0,0,0,1.5,38.322a3.278,3.278,0,0,0,1.989.716H15.854a2.674,2.674,0,0,0,1.641-.583,2.764,2.764,0,0,0,1.025-1.44L22.2,24.879A1.894,1.894,0,0,0,21.962,23.151Zm-14.253.027.281-.857a.6.6,0,0,1,.221-.3.561.561,0,0,1,.342-.127H16.7a.292.292,0,0,1,.268.127.349.349,0,0,1,.027.3l-.282.857a.6.6,0,0,1-.221.3.561.561,0,0,1-.341.127H8a.292.292,0,0,1-.268-.127A.349.349,0,0,1,7.709,23.178ZM6.6,26.607l.281-.857a.6.6,0,0,1,.221-.3.56.56,0,0,1,.342-.127h8.144a.292.292,0,0,1,.268.127.349.349,0,0,1,.027.3l-.281.857a.6.6,0,0,1-.221.3.56.56,0,0,1-.342.127H6.892a.292.292,0,0,1-.268-.127A.349.349,0,0,1,6.6,26.607Z"
                  transform="translate(0)"
                  class="color-fill"/>
        </g>
    </symbol>

    <!-- Shop -->
    <symbol id="icon-shop" viewBox="0 0 20.645 20.616">
        <g transform="translate(0 -0.338)">
            <g transform="translate(0 0.338)">
                <g transform="translate(0 0)">
                    <path d="M19.964,230.45h0v-4.225a2.181,2.181,0,0,1-1.374.062v4.163H16.918V227.8a.452.452,0,0,0-.452-.452H14.937a.452.452,0,0,0-.452.452v2.647H12.451v-.424a.452.452,0,0,0-.452-.452H10.27a.452.452,0,0,0-.452.452v.424H7.212v-1.186a.453.453,0,0,0-.452-.452H4.183a.452.452,0,0,0-.452.452v1.186H2.722v-4.194a2.354,2.354,0,0,1-.687.113,2.353,2.353,0,0,1-.687-.113v4.194h0A1.006,1.006,0,0,0,.34,231.456v4.8a1,1,0,0,0,1.005,1.005H19.964a1.006,1.006,0,0,0,1.006-1.005v-4.8A1.007,1.007,0,0,0,19.964,230.45Z"
                          transform="translate(-0.326 -216.642)"
                          class="color-fill"/>
                    <path d="M101.684,110.245a.324.324,0,0,0-.325.324v2.359a1.695,1.695,0,0,0,3.39,0v-2.359a.325.325,0,0,0-.325-.324Z"
                          transform="translate(-97.059 -105.582)"
                          class="color-fill"/>
                    <path d="M202.669,110.245a.325.325,0,0,0-.325.324v2.359a1.695,1.695,0,0,0,3.39,0v-2.359a.325.325,0,0,0-.325-.324Z"
                          transform="translate(-193.76 -105.582)"
                          class="color-fill"/>
                    <path d="M303.669,110.245a.325.325,0,0,0-.325.324v2.359a1.7,1.7,0,0,0,3.391,0v-2.359a.325.325,0,0,0-.325-.324Z"
                          transform="translate(-290.475 -105.582)"
                          class="color-fill"/>
                    <path d="M.324,4.15h20a.325.325,0,0,0,.193-.585L16.264.4A.327.327,0,0,0,16.07.338H4.575A.326.326,0,0,0,4.381.4L.131,3.565a.325.325,0,0,0,.193.585Z"
                          transform="translate(0 -0.338)"
                          class="color-fill"/>
                    <path d="M2.035,114.622a1.7,1.7,0,0,0,1.7-1.7v-2.359a.325.325,0,0,0-.325-.324H.665a.325.325,0,0,0-.325.324v2.359A1.7,1.7,0,0,0,2.035,114.622Z"
                          transform="translate(-0.326 -105.581)"
                          class="color-fill"/>
                    <path d="M407.428,110.245h-2.74a.324.324,0,0,0-.325.324v2.359a1.695,1.695,0,0,0,3.39,0v-2.359A.325.325,0,0,0,407.428,110.245Z"
                          transform="translate(-387.208 -105.582)"
                          class="color-fill"/>
                </g>
            </g>
        </g>
    </symbol>

    <!-- Filter -->
    <symbol id="icon-filter" viewBox='0 0 512 512'>
        <path d='M32 144h448M112 256h288M208 368h96' stroke-width='32'/>
    </symbol>
    <!-- Search Cloud -->
    <symbol id="icon-searchCloud" fill-rule="evenodd" clip-rule="evenodd" viewBox="0 0 24 24">
        <path d="M14.812 20.171c-.791.523-1.738.829-2.757.829-2.76 0-5-2.24-5-5s2.24-5 5-5 5 2.24 5 5c0 1.019-.306 1.966-.829 2.757l2.829 2.829-1.414 1.414-2.829-2.829zm-9.083-1.171c-3.528 0-5.729-2.65-5.729-5.5 0-2.702 1.952-4.945 4.521-5.408.212-3.951 3.474-7.092 7.479-7.092 4.006 0 7.267 3.141 7.479 7.092 2.57.463 4.521 2.706 4.521 5.408 0 2.881-2.261 5.5-5.62 5.5.433-.909.675-1.927.675-3 0-3.863-3.137-7-7-7-3.864 0-7 3.137-7 7 0 1.073.242 2.091.674 3m6.326-6c1.655 0 3 1.345 3 3s-1.345 3-3 3c-1.656 0-3-1.345-3-3s1.344-3 3-3"/>
    </symbol>

    <!-- Menu List -->
    <symbol id="icon-menuList" viewBox="0 0 24 24">
        <path d="M13 6h-13v-4h13v4zm0 4h-13v4h13v-4zm0 8h-13v4h13v-4zm3-8l4 5.075 4-5.075h-8z"/>
    </symbol>

    <!-- Menu Dots -->
    <symbol id="icon-menuDots" fill-rule="evenodd" clip-rule="evenodd" viewBox="0 0 24 24">
        <path d="M16 12c0-1.656 1.344-3 3-3s3 1.344 3 3-1.344 3-3 3-3-1.344-3-3zm1 0c0-1.104.896-2 2-2s2 .896 2 2-.896 2-2 2-2-.896-2-2zm-8 0c0-1.656 1.344-3 3-3s3 1.344 3 3-1.344 3-3 3-3-1.344-3-3zm1 0c0-1.104.896-2 2-2s2 .896 2 2-.896 2-2 2-2-.896-2-2zm-8 0c0-1.656 1.344-3 3-3s3 1.344 3 3-1.344 3-3 3-3-1.344-3-3zm1 0c0-1.104.896-2 2-2s2 .896 2 2-.896 2-2 2-2-.896-2-2z"/>
    </symbol>

    <!-- Search -->
    <symbol id="icon-search" viewBox="0 0 24 24">
        <path d="M23.809 21.646l-6.205-6.205c1.167-1.605 1.857-3.579 1.857-5.711 0-5.365-4.365-9.73-9.731-9.73-5.365 0-9.73 4.365-9.73 9.73 0 5.366 4.365 9.73 9.73 9.73 2.034 0 3.923-.627 5.487-1.698l6.238 6.238 2.354-2.354zm-20.955-11.916c0-3.792 3.085-6.877 6.877-6.877s6.877 3.085 6.877 6.877-3.085 6.877-6.877 6.877c-3.793 0-6.877-3.085-6.877-6.877z"/>
    </symbol>

    <!-- Monitoring -->
    <symbol id="icon-monitoring" viewBox="0 0 24 24">
        <path d="M17.472 11c2.709 0 4.569 1.848 5.316 2.75-.716 1.037-2.566 3.25-5.316 3.25-2.659 0-4.317-2.512-5.317-3.286 1-.652 2.505-2.714 5.317-2.714zm-12.538-4.576c-.073.341-1.11 8.253-1.11 8.253l-1.055-4.655c-.123-.49-.847-.551-1.005-.063l-.824 3.041h-.94v1h1.339c.223 0 .405-.153.458-.328l.441-1.508 1.146 5.453c.135.535.904.499.991-.042l1.167-8.075 1.059 5.509c.11.486.784.54.966.073l.999-2.553s.483 1.121.574 1.312.188.315.499.315c.865 0 1.511-.105 2.101.527 1.064 1.144 3.111 3.317 5.732 3.317 4.212 0 6.528-4.299 6.528-4.299s-2.337-3.701-6.528-3.701c-2.631 0-4.569 1.689-5.627 2.689-.563.532-1.106.452-1.877.452l-.958-2.146c-.178-.417-.773-.407-.938.015l-.847 2.165-1.225-6.752c-.123-.546-.941-.582-1.066.001zm12.566 5.576c-1.105 0-2 .896-2 2 0 1.105.895 2 2 2 1.104 0 2-.896 2-2s-.896-2-2-2zm-.002 2c-.282.282-.74.282-1.022 0-.282-.282-.282-.74 0-1.022.283-.282.74-.282 1.022 0 .283.281.283.739 0 1.022z"/>
    </symbol>

    <!-- Map Place -->
    <symbol id="icon-mapPlace" viewBox="0 0 24 24">
        <path d="M12 0c-3.148 0-6 2.553-6 5.702 0 4.682 4.783 5.177 6 12.298 1.217-7.121 6-7.616 6-12.298 0-3.149-2.851-5.702-6-5.702zm0 8c-1.105 0-2-.895-2-2s.895-2 2-2 2 .895 2 2-.895 2-2 2zm12 16l-6.707-2.427-5.293 2.427-5.581-2.427-6.419 2.427 4-9 3.96-1.584c.38.516.741 1.08 1.061 1.729l-3.523 1.41-1.725 3.88 2.672-1.01 1.506-2.687-.635 3.044 4.189 1.789.495-2.021.465 2.024 4.15-1.89-.618-3.033 1.572 2.896 2.732.989-1.739-3.978-3.581-1.415c.319-.65.681-1.215 1.062-1.731l4.021 1.588 3.936 9z"/>
    </symbol>

    <!-- Map Places -->
    <symbol id="icon-mapPlaces" viewBox="0 0 24 24">
        <path d="M18 0c-3.148 0-6 2.553-6 5.702 0 4.682 4.783 5.177 6 12.298 1.217-7.121 6-7.616 6-12.298 0-3.149-2.852-5.702-6-5.702zm0 8c-1.105 0-2-.895-2-2s.895-2 2-2 2 .895 2 2-.895 2-2 2zm-12-3c-2.099 0-4 1.702-4 3.801 0 3.121 3.188 3.451 4 8.199.812-4.748 4-5.078 4-8.199 0-2.099-1.901-3.801-4-3.801zm0 5.333c-.737 0-1.333-.597-1.333-1.333s.596-1.333 1.333-1.333 1.333.596 1.333 1.333-.596 1.333-1.333 1.333zm6 5.775l-3.215-1.078c.365-.634.777-1.128 1.246-1.687l1.969.657 1.92-.64c.388.521.754 1.093 1.081 1.75l-3.001.998zm12 7.892l-6.707-2.427-5.293 2.427-5.581-2.427-6.419 2.427 3.62-8.144c.299.76.554 1.776.596 3.583l-.443.996 2.699-1.021 4.809 2.091.751-3.725.718 3.675 4.454-2.042 3.099 1.121-.461-1.055c.026-.392.068-.78.131-1.144.144-.84.345-1.564.585-2.212l3.442 7.877z"/>
    </symbol>

    <!-- New -->
    <symbol id="icon-new" viewBox="0 0 24 24">
        <path d="M12 0l-2.138 2.63-3.068-1.441-.787 3.297-3.389.032.722 3.312-3.039 1.5 2.088 2.671-2.088 2.67 3.039 1.499-.722 3.312 3.389.033.787 3.296 3.068-1.441 2.138 2.63 2.139-2.63 3.068 1.441.786-3.296 3.39-.033-.722-3.312 3.038-1.499-2.087-2.67 2.087-2.671-3.038-1.5.722-3.312-3.39-.032-.786-3.297-3.068 1.441-2.139-2.63zm0 15.5c.69 0 1.25.56 1.25 1.25s-.56 1.25-1.25 1.25-1.25-.56-1.25-1.25.56-1.25 1.25-1.25zm1-1.038v-7.462h-2v7.462h2z"/>
    </symbol>

    <!-- Puzzle -->
    <symbol id="icon-puzzle" viewBox="0 0 24 24">
        <path d="M2.479 18c.978 0 1.309-.524 1.708-.922.813-.816 1.813-.469 1.813.847v6.075h6.075c1.315 0 1.663-1 .847-1.813-.398-.399-.922-.73-.922-1.708 0-1.087 1.108-2.479 3-2.479s3 1.392 3 2.479c0 .978-.524 1.309-.922 1.708-.816.813-.469 1.813.847 1.813h6.075v-6.075c0-1.315-1-1.663-1.813-.847-.399.398-.73.922-1.708.922-1.087 0-2.479-1.108-2.479-3s1.392-3 2.479-3c.978 0 1.309.524 1.708.922.813.816 1.813.469 1.813-.847v-6.075h-6.075c-1.315 0-1.663-1-.847-1.813.398-.399.922-.73.922-1.708 0-1.087-1.108-2.479-3-2.479s-3 1.392-3 2.479c0 .978.524 1.309.922 1.708.816.813.469 1.813-.847 1.813h-6.075v6.075c0 1.315-1 1.663-1.813.847-.399-.398-.73-.922-1.708-.922-1.087 0-2.479 1.108-2.479 3s1.392 3 2.479 3z"/>
    </symbol>

    <!-- Radio -->
    <symbol id="icon-radio" viewBox="0 0 24 24">
        <path d="M6.043 16.496l-1.482 1.505c-2.791-2.201-4.561-5.413-4.561-9.001s1.77-6.8 4.561-9l1.482 1.504c-2.326 1.835-3.804 4.512-3.804 7.496s1.478 5.661 3.804 7.496zm8.957-7.496c0-1.657-1.344-3-3-3s-3 1.343-3 3c0 1.304.838 2.403 2 2.816v12.184h2v-12.184c1.162-.413 2-1.512 2-2.816zm-8.282 0c0-1.791.887-3.397 2.282-4.498l-1.481-1.502c-1.86 1.467-3.04 3.608-3.04 6s1.18 4.533 3.04 6l1.481-1.502c-1.396-1.101-2.282-2.707-2.282-4.498zm12.721-9l-1.482 1.504c2.326 1.835 3.804 4.512 3.804 7.496s-1.478 5.661-3.804 7.496l1.482 1.505c2.791-2.201 4.561-5.413 4.561-9.001s-1.77-6.8-4.561-9zm-2.958 3l-1.481 1.502c1.396 1.101 2.282 2.707 2.282 4.498s-.886 3.397-2.282 4.498l1.481 1.502c1.86-1.467 3.04-3.608 3.04-6s-1.179-4.533-3.04-6z"/>
    </symbol>

    <!-- Star -->
    <symbol id="icon-star" viewBox="0 0 24 24">
        <path d="M12 .288l2.833 8.718h9.167l-7.417 5.389 2.833 8.718-7.416-5.388-7.417 5.388 2.833-8.718-7.416-5.389h9.167z"/>
    </symbol>

    <!-- Target -->
    <symbol id="icon-target" viewBox="0 0 24 24">
        <path d="M6 12c0 2.206 1.794 4 4 4 1.761 0 3.242-1.151 3.775-2.734l2.224-1.291.001.025c0 3.314-2.686 6-6 6s-6-2.686-6-6 2.686-6 6-6c1.084 0 2.098.292 2.975.794l-2.21 1.283c-.248-.048-.503-.077-.765-.077-2.206 0-4 1.794-4 4zm4-2c-1.105 0-2 .896-2 2s.895 2 2 2 2-.896 2-2l-.002-.015 3.36-1.95c.976-.565 2.704-.336 3.711.159l4.931-2.863-3.158-1.569.169-3.632-4.945 2.87c-.07 1.121-.734 2.736-1.705 3.301l-3.383 1.964c-.29-.163-.621-.265-.978-.265zm7.995 1.911l.005.089c0 4.411-3.589 8-8 8s-8-3.589-8-8 3.589-8 8-8c1.475 0 2.853.408 4.041 1.107.334-.586.428-1.544.146-2.18-1.275-.589-2.69-.927-4.187-.927-5.523 0-10 4.477-10 10s4.477 10 10 10c5.233 0 9.521-4.021 9.957-9.142-.301-.483-1.066-1.061-1.962-.947z"/>
    </symbol>

    <!-- Thumb -->
    <symbol id="icon-thumb" viewBox="0 0 24 24">
        <path d="M5 22h-5v-12h5v12zm17.615-8.412c-.857-.115-.578-.734.031-.922.521-.16 1.354-.5 1.354-1.51 0-.672-.5-1.562-2.271-1.49-1.228.05-3.666-.198-4.979-.885.906-3.656.688-8.781-1.688-8.781-1.594 0-1.896 1.807-2.375 3.469-1.221 4.242-3.312 6.017-5.687 6.885v10.878c4.382.701 6.345 2.768 10.505 2.768 3.198 0 4.852-1.735 4.852-2.666 0-.335-.272-.573-.96-.626-.811-.062-.734-.812.031-.953 1.268-.234 1.826-.914 1.826-1.543 0-.529-.396-1.022-1.098-1.181-.837-.189-.664-.757.031-.812 1.133-.09 1.688-.764 1.688-1.41 0-.565-.424-1.109-1.26-1.221z"/>
    </symbol>

    <!-- Tree -->
    <symbol id="icon-tree" viewBox="0 0 24 24">
        <path d="M13 24h-2v-5.126c-.806-.208-1.513-.661-2.039-1.274-.602.257-1.265.4-1.961.4-2.76 0-5-2.24-5-5 0-1.422.595-2.707 1.55-3.617-.348-.544-.55-1.19-.55-1.883 0-1.878 1.483-3.413 3.341-3.496.823-2.332 3.047-4.004 5.659-4.004 2.612 0 4.836 1.672 5.659 4.004 1.858.083 3.341 1.618 3.341 3.496 0 .693-.202 1.339-.55 1.883.955.91 1.55 2.195 1.55 3.617 0 2.76-2.24 5-5 5-.696 0-1.359-.143-1.961-.4-.526.613-1.233 1.066-2.039 1.274v5.126z"/>
    </symbol>

    <!-- Warning -->
    <symbol id="icon-warning" viewBox="0 0 24 24">
        <path d="M12 0c-6.627 0-12 5.373-12 12s5.373 12 12 12 12-5.373 12-12-5.373-12-12-12zm-1.351 6.493c-.08-.801.55-1.493 1.351-1.493s1.431.692 1.351 1.493l-.801 8.01c-.029.282-.266.497-.55.497s-.521-.215-.55-.498l-.801-8.009zm1.351 12.757c-.69 0-1.25-.56-1.25-1.25s.56-1.25 1.25-1.25 1.25.56 1.25 1.25-.56 1.25-1.25 1.25z"/>
    </symbol>

    <!-- Wireless -->
    <symbol id="icon-wireless" viewBox="0 0 24 24">
        <path d="M8.213 16.984c.97-1.028 2.308-1.664 3.787-1.664s2.817.636 3.787 1.664l-3.787 4.016-3.787-4.016zm-1.747-1.854c1.417-1.502 3.373-2.431 5.534-2.431s4.118.929 5.534 2.431l2.33-2.472c-2.012-2.134-4.793-3.454-7.864-3.454s-5.852 1.32-7.864 3.455l2.33 2.471zm-4.078-4.325c2.46-2.609 5.859-4.222 9.612-4.222s7.152 1.613 9.612 4.222l2.388-2.533c-3.071-3.257-7.313-5.272-12-5.272s-8.929 2.015-12 5.272l2.388 2.533z"/>
    </symbol>

    <!-- Setting -->
    <symbol id="icon-setting" viewBox="0 0 24 24">
        <path d="M4.5.257l3.771 3.771c.409 1.889-2.33 4.66-4.242 4.242l-3.771-3.77c-.172.584-.258 1.188-.258 1.792 0 1.602.607 3.202 1.83 4.426 1.351 1.351 3.164 1.958 4.931 1.821.933-.072 1.852.269 2.514.931l9.662 9.662c.578.578 1.337.868 2.097.868 1.661 0 3.001-1.364 2.966-3.03-.016-.737-.306-1.47-.868-2.033l-9.662-9.663c-.662-.661-1.002-1.581-.931-2.514.137-1.767-.471-3.58-1.82-4.93-1.225-1.224-2.825-1.83-4.428-1.83-.603 0-1.207.086-1.791.257zm17.5 20.743c0 .553-.447 1-1 1-.553 0-1-.448-1-1s.447-1 1-1 1 .447 1 1z"/>
    </symbol>

    <!-- Share -->
    <symbol id="icon-share" viewBox="0 0 24 24">
        <path d="M5 7c2.761 0 5 2.239 5 5s-2.239 5-5 5-5-2.239-5-5 2.239-5 5-5zm11.122 12.065c-.073.301-.122.611-.122.935 0 2.209 1.791 4 4 4s4-1.791 4-4-1.791-4-4-4c-1.165 0-2.204.506-2.935 1.301l-5.488-2.927c-.23.636-.549 1.229-.943 1.764l5.488 2.927zm7.878-15.065c0-2.209-1.791-4-4-4s-4 1.791-4 4c0 .324.049.634.122.935l-5.488 2.927c.395.535.713 1.127.943 1.764l5.488-2.927c.731.795 1.77 1.301 2.935 1.301 2.209 0 4-1.791 4-4z"/>
    </symbol>

    <!-- Secure -->
    <symbol id="icon-secure" viewBox="0 0 24 24">
        <path d="M12 0c-2.995 2.995-7.486 4-11 4 0 8.582 5.068 16.097 11 20 5.932-3.903 11-11.418 11-20-3.514 0-8.005-1.005-11-4zm-8.912 5.894c2.455-.246 5.912-1.012 8.912-3.25v18.906c-4-3.063-8.254-8.604-8.912-15.656z"/>
    </symbol>

    <!-- Flag -->
    <symbol id="icon-flag" viewBox='0 0 512 512'>
        <path d='M80 480a16 16 0 01-16-16V68.13a24 24 0 0111.9-20.72C88 40.38 112.38 32 160 32c37.21 0 78.83 14.71 115.55 27.68C305.12 70.13 333.05 80 352 80a183.84 183.84 0 0071-14.5 18 18 0 0125 16.58v219.36a20 20 0 01-12 18.31c-8.71 3.81-40.51 16.25-84 16.25-24.14 0-54.38-7.14-86.39-14.71C229.63 312.79 192.43 304 160 304c-36.87 0-55.74 5.58-64 9.11V464a16 16 0 01-16 16z'/>
    </symbol>

    <!-- Cart -->
    <symbol id="icon-cart" viewBox='0 0 24 24'>
        <path d="M4.558 7l4.701-4.702c.199-.198.46-.298.721-.298.613 0 1.02.505 1.02 1.029 0 .25-.092.504-.299.711l-3.26 3.26h-2.883zm12.001 0h2.883l-4.702-4.702c-.198-.198-.459-.298-.72-.298-.613 0-1.02.505-1.02 1.029 0 .25.092.504.299.711l3.26 3.26zm7.441 2v2h-.642c-.534 0-1.022.305-1.257.786l-4.101 10.214h-12l-4.101-10.216c-.234-.48-.722-.784-1.256-.784h-.643v-2h24zm-15 4c0-.552-.448-1-1-1s-1 .448-1 1v5c0 .552.448 1 1 1s1-.448 1-1v-5zm4 0c0-.552-.448-1-1-1s-1 .448-1 1v5c0 .552.448 1 1 1s1-.448 1-1v-5zm4 0c0-.552-.447-1-1-1s-1 .448-1 1v5c0 .552.447 1 1 1s1-.448 1-1v-5z"/>
    </symbol>

    <!-- Price -->
    <symbol id="icon-price" viewBox='0 0 512 512'>
        <path d='M448 183.8v-123A44.66 44.66 0 00403.29 16H280.36a30.62 30.62 0 00-21.51 8.89L13.09 270.58a44.86 44.86 0 000 63.34l117 117a44.84 44.84 0 0063.33 0l245.69-245.61A30.6 30.6 0 00448 183.8zM352 144a32 32 0 1132-32 32 32 0 01-32 32z'/>
        <path d='M496 64a16 16 0 00-16 16v127.37L218.69 468.69a16 16 0 1022.62 22.62l262-262A29.84 29.84 0 00512 208V80a16 16 0 00-16-16z'/>
    </symbol>

    <!-- Car -->
    <symbol id="icon-car" viewBox='0 0 512 512'>
        <path d='M494.26 276.22c-3.6-40.41-9.53-48.28-11.77-51.24-5.15-6.84-13.39-11.31-22.11-16a3.6 3.6 0 01-.91-5.68 15.93 15.93 0 004.53-12.53A16.27 16.27 0 00447.65 176h-15.6a17 17 0 00-2 .13 8.5 8.5 0 00-1.41-.47c-9.24-19.53-21.89-46.27-48.11-59.32C341.64 97 270 96 256 96s-85.64 1-124.48 20.31c-26.22 13.05-38.87 39.79-48.11 59.32l-.08.16a6.52 6.52 0 00-1.35.34 17 17 0 00-2-.13H64.35A16.27 16.27 0 0048 190.77a15.93 15.93 0 004.59 12.47 3.6 3.6 0 01-.91 5.68c-8.72 4.72-17 9.19-22.11 16-2.24 3-8.16 10.83-11.77 51.24-2 22.74-2.3 46.28-.73 61.44 3.29 31.5 9.46 50.54 9.72 51.33a16 16 0 0013.2 10.87v.2a16 16 0 0016 16h56a16 16 0 0016-16c8.61 0 14.6-1.54 20.95-3.18a158.83 158.83 0 0128-4.91C207.45 389 237.79 388 256 388c17.84 0 49.52 1 80.08 3.91a159.16 159.16 0 0128.11 4.93c6.08 1.56 11.85 3 19.84 3.15a16 16 0 0016 16h56a16 16 0 0016-16v-.12A16 16 0 00485.27 389c.26-.79 6.43-19.83 9.72-51.33 1.57-15.17 1.29-38.67-.73-61.45zm-381.93-86.91c8-17 17.15-36.24 33.44-44.35 23.54-11.72 72.33-17 110.23-17s86.69 5.24 110.23 17c16.29 8.11 25.4 27.36 33.44 44.35l1 2.17a8 8 0 01-7.44 11.42C360 202 290 199.12 256 199.12s-104 2.95-137.28 3.85a8 8 0 01-7.44-11.42c.35-.74.72-1.49 1.05-2.24zm11.93 79.63A427.17 427.17 0 0172.42 272c-10.6 0-21.53-3-23.56-12.44-1.39-6.35-1.24-9.92-.49-13.51C49 243 50 240.78 55 240c13-2 20.27.51 41.55 6.78 14.11 4.15 24.29 9.68 30.09 14.06 2.91 2.16 1.36 7.8-2.38 8.1zm221.38 82c-13.16 1.5-39.48.95-89.34.95s-76.17.55-89.33-.95c-13.58-1.51-30.89-14.35-19.07-25.79 7.87-7.54 26.23-13.18 50.68-16.35s34.8-4.8 57.62-4.8 32.12 1 57.62 4.81 44.77 9.52 50.68 16.35c10.78 12.24-5.29 24.19-18.86 25.84zm117.5-91.39c-2 9.48-13 12.44-23.56 12.44a455.91 455.91 0 01-52.84-3.06c-3.06-.29-4.48-5.66-1.38-8.1 5.71-4.49 16-9.91 30.09-14.06 21.28-6.27 33.55-8.78 44.09-6.69 2.57.51 3.93 3.27 4.09 5a40.64 40.64 0 01-.49 14.48z'/>
    </symbol>

    <!-- Ruble -->
    <symbol id="icon-ruble" viewBox="0 0 510.127 510.127">
        <path d="M34.786,428.963h81.158v69.572c0,3.385,1.083,6.156,3.262,8.322c2.173,2.18,4.951,3.27,8.335,3.27h60.502
      c3.14,0,5.857-1.09,8.152-3.27c2.295-2.166,3.439-4.938,3.439-8.322v-69.572h182.964c3.377,0,6.156-1.076,8.334-3.256
      c2.18-2.178,3.262-4.951,3.262-8.336v-46.377c0-3.365-1.082-6.156-3.262-8.322c-2.172-2.18-4.957-3.27-8.334-3.27H199.628v-42.754
      h123.184c48.305,0,87.73-14.719,118.293-44.199c30.551-29.449,45.834-67.49,45.834-114.125c0-46.604-15.283-84.646-45.834-114.125
      C410.548,14.749,371.116,0,322.812,0H127.535c-3.385,0-6.157,1.089-8.335,3.256c-2.173,2.179-3.262,4.969-3.262,8.335v227.896
      H34.786c-3.384,0-6.157,1.145-8.335,3.439c-2.172,2.295-3.262,5.012-3.262,8.151v53.978c0,3.385,1.083,6.158,3.262,8.336
      c2.179,2.18,4.945,3.256,8.335,3.256h81.158v42.754H34.786c-3.384,0-6.157,1.09-8.335,3.27c-2.172,2.166-3.262,4.951-3.262,8.322
      v46.377c0,3.385,1.083,6.158,3.262,8.336C28.629,427.887,31.401,428.963,34.786,428.963z M199.628,77.179h115.938
      c25.6,0,46.248,7.485,61.953,22.46c15.697,14.976,23.549,34.547,23.549,58.691c0,24.156-7.852,43.733-23.549,58.691
      c-15.705,14.988-36.354,22.473-61.953,22.473H199.628V77.179z"/>
    </symbol>

    <!-- Menu -->
    <symbol id="icon-menu" viewBox="0 0 24 24" fill-rule="evenodd" clip-rule="evenodd">
        <path d="M24 18v1h-24v-1h24zm0-6v1h-24v-1h24zm0-6v1h-24v-1h24z" fill="#1040e2"/>
        <path d="M24 19h-24v-1h24v1zm0-6h-24v-1h24v1zm0-6h-24v-1h24v1z"/>
    </symbol>

    <!-- Electro -->
    <symbol id="icon-electro" viewBox="0 0 24 24">
        <path d="M8 24l3-9h-9l14-15-3 9h9l-14 15z"/>
    </symbol>

    <!-- Water -->
    <symbol id="icon-water" viewBox="0 0 24 24">
        <path d="M12 0c-4.87 7.197-8 11.699-8 16.075 0 4.378 3.579 7.925 8 7.925s8-3.547 8-7.925c0-4.376-3.13-8.878-8-16.075zm-.027 5.12c.467.725 1.027 1.987 1.027 3.32 0 3.908-4 4.548-4 2.17 0-1.633 1.988-4.044 2.973-5.49z"/>
    </symbol>

    <!-- Gas -->
    <symbol id="icon-gas" viewBox="0 0 24 24">
        <path d="M8.625 0c.61 7.189-5.625 9.664-5.625 15.996 0 4.301 3.069 7.972 9 8.004 5.931.032 9-4.414 9-8.956 0-4.141-2.062-8.046-5.952-10.474.924 2.607-.306 4.988-1.501 5.808.07-3.337-1.125-8.289-4.922-10.378zm4.711 13c3.755 3.989 1.449 9-1.567 9-1.835 0-2.779-1.265-2.769-2.577.019-2.433 2.737-2.435 4.336-6.423z"/>
    </symbol>

    <!--    Checkpoint-->
    <symbol id="icon-checkpoint" viewBox="0 0 24 24">
        <svg version="1.1" xmlns="http://www.w3.org/2000/svg" xmlns:xlink="http://www.w3.org/1999/xlink" x="0px" y="0px"
             viewBox="0 0 1000 1000" enable-background="new 0 0 1000 1000" xml:space="preserve">
                <metadata> Svg Vector Icons : http://www.onlinewebfonts.com/icon </metadata>
            <g><g transform="translate(0.000000,512.000000) scale(0.100000,-0.100000)"><path d="M5874.3,5029.5c-284.4-46.1-384.3-86.5-955-386.2l-572.6-299.8v-148v-149.9l246-86.5l244-84.6l9.6-161.4l9.6-161.4l1283.6-5.8l1281.7-3.8v161.4V3865l240.2,80.7l240.2,80.7V4186v159.5l-551.5,292.1c-659.1,347.8-764.8,384.3-1168.3,393.9C6045.3,5035.3,5907,5033.4,5874.3,5029.5z M6197.1,4649.1c138.4-57.6,196-192.2,142.2-322.8c-82.6-196-353.6-194.1-440,0c-32.7,73-34.6,98-17.3,157.6c25,80.7,90.3,149.9,167.2,172.9S6128,4679.8,6197.1,4649.1z"/><path
                    d="M5019.2,2827.4c0-440,1.9-449.6,53.8-601.4c119.1-344,351.6-574.6,701.4-695.6c190.2-67.3,461.2-71.1,657.2-9.6c353.6,109.5,628.4,380.5,743.7,734c34.6,107.6,42.3,182.5,50,572.6l7.7,445.8H6126H5019.2V2827.4z"/><path
                    d="M849.4,419.7v-605.3H2550h1700.6v-1835.1v-1835.1H2175.3H100v-459.3v-457.3l3791.2-15.4c2086.8-7.7,4290.9-7.7,4900,0l1108.8,15.4v457.3v459.3h-605.3h-605.3v1917.7c0,2050.3-1.9,2063.8-96.1,2254c-140.3,280.6-405.4,493.8-762.9,611.1c-215.2,71.1-405.4,98-716.7,98h-246l-363.2-518.8C6306.7,221.8,6135.6-8.8,6126-6.9c-9.6,3.8-182.6,234.4-384.3,513.1l-368.9,509.2l-2261.7,5.8L849.4,1025V419.7z"/></g></g>
        </svg>
    </symbol>

    <!--    Checkpoint-->
    <symbol id="icon-playground" viewBox="0 0 24 24">
        <svg role="img" focusable="false" aria-hidden="true" xmlns="http://www.w3.org/2000/svg" viewBox="0 0 14 14"><path d="M 3.9196429,1.429652 C 3.2736743,1.4701031 2.7130206,2.0681336 2.7142857,2.7153662 2.7145317,3.3884082 3.3269577,4.0006106 4,4.0006106 c 0.6730423,0 1.2854683,-0.6122024 1.2857143,-1.2852444 C 5.2870857,2.0145272 4.6191126,1.3858481 3.9196429,1.429652 Z m 6.8571431,2.5714285 c -0.645969,0.040451 -1.2066226,0.6384817 -1.2053574,1.2857143 2.46e-4,0.673042 0.6126724,1.2852443 1.2857144,1.2852443 0.673042,0 1.285468,-0.6122023 1.285714,-1.2852443 0.0014,-0.700839 -0.666602,-1.329518 -1.366071,-1.2857143 z M 3.5714286,4.429652 c -1.2608486,0 -1.5992872,1.6057771 -1.6875,2.4642857 L 1,6.5725091 1,7.429652 6.1160714,9.2510801 5.2857143,12.572509 l 3.4285714,0 L 7.9107143,9.8939381 13,11.715366 13,10.858223 12.196429,10.56358 c 0.140624,-0.7382809 0.589285,-3.5624995 -0.910715,-3.5624995 -1.4043957,0 -1.6416074,1.9238576 -1.6874997,2.6517856 L 4.5089286,7.8314377 C 4.6728674,6.8618214 4.9548571,4.429652 3.5714286,4.429652 Z"/></svg>
    </symbol>

    <!--    lighting-->
    <symbol id="icon-lighting" viewBox="0 0 24 24">
        <svg version="1.1" id="Capa_1" xmlns="http://www.w3.org/2000/svg" xmlns:xlink="http://www.w3.org/1999/xlink"
             x="0px" y="0px"
             viewBox="0 0 512 512" style="enable-background:new 0 0 512 512;" xml:space="preserve">
<path d="M375.1,157.988c-4.599-17.701-19.224-32.168-38.458-39.895V104c0-14.908-10.248-27.466-24.069-31.004
	c0.041-0.327,0.069-0.658,0.069-0.996c0-39.701-32.299-72-72-72s-72,32.299-72,72v81.376c-9.311,3.303-16,12.195-16,22.624v320h-8
	c-4.418,0-8,3.582-8,8s3.582,8,8,8h64c4.418,0,8-3.582,8-8s-3.582-8-8-8h-8V176c0-10.429-6.689-19.321-16-22.624V72
	c0-30.878,25.122-56,56-56s56,25.122,56,56c0,0.338,0.028,0.669,0.069,0.996C282.89,76.534,272.643,89.092,272.643,104v14.094
	c-19.234,7.726-33.858,22.194-38.458,39.895c-0.623,2.396-0.101,4.947,1.415,6.906c1.515,1.959,3.852,3.106,6.328,3.106h30.715
	c0,17.645,14.355,32,32,32s32-14.355,32-32h30.715c2.477,0,4.813-1.147,6.328-3.106C375.201,162.935,375.723,160.385,375.1,157.988z
	 M176.643,168c4.411,0,8,3.589,8,8v256h-16V176C168.643,171.589,172.231,168,176.643,168z M168.643,496v-48h16v48H168.643z
	 M288.643,104c0-8.822,7.178-16,16-16s16,7.178,16,16v9.468c-5.171-0.957-10.529-1.468-16-1.468s-10.829,0.511-16,1.468V104z
	 M304.643,184c-8.822,0-16-7.178-16-16h32C320.643,176.822,313.465,184,304.643,184z M254.068,152c9.116-14.357,28.628-24,50.575-24
	s41.458,9.643,50.575,24H254.068z"/>
            <g>
</g>
            <g>
</g>
            <g>
</g>
            <g>
</g>
            <g>
</g>
            <g>
</g>
            <g>
</g>
            <g>
</g>
            <g>
</g>
            <g>
</g>
            <g>
</g>
            <g>
</g>
            <g>
</g>
            <g>
</g>
            <g>
</g>
</svg>
    </symbol>

    <!--    sportsGround-->
    <symbol id="icon-sportsGround" viewBox="0 0 24 24">
        <svg version="1.1" xmlns="http://www.w3.org/2000/svg" xmlns:xlink="http://www.w3.org/1999/xlink" x="0px" y="0px"
             viewBox="0 0 1000 1000" enable-background="new 0 0 1000 1000" xml:space="preserve">
<metadata> Svg Vector Icons : http://www.onlinewebfonts.com/icon </metadata>
            <g><g transform="translate(0.000000,511.000000) scale(0.100000,-0.100000)"><path d="M753.3,1743.3v-980H426.7H100V110v-653.3h326.7h326.7v-980v-980H5000h4246.7v980v980h326.7H9900V110v653.3h-326.7h-326.7v980v980H5000H753.3V1743.3z M2713.3,110v-2286.7h-816.7H1080v447.1v447.1l151.1,75.5c518.6,255.2,859.5,837.1,822.8,1398.5c-34.7,522.7-357.3,1004.5-822.8,1235.2l-151.1,75.5v447.1v447.1h816.7h816.7V110z M4836.7,1653.5V910.3l-75.5-24.5c-316.5-102.1-577.8-451.2-577.8-775.8c0-324.6,261.3-673.8,577.8-775.8l75.5-24.5v-743.2v-743.2h-898.3H3040V110v2286.7h898.3h898.3V1653.5z M6960,110v-2286.7h-898.3h-898.3v743.2v743.2l77.6,24.5c314.4,102.1,575.7,451.2,575.7,775.8c0,324.6-261.3,673.8-575.7,775.8l-77.6,24.5v743.2v743.2h898.3H6960V110z M8920,1949.5v-447.1l-126.6-61.3c-473.7-222.5-812.6-722.8-847.3-1249.5c-36.7-561.5,304.2-1143.3,822.8-1398.5l151.1-75.5v-447.1v-447.1h-816.7h-816.7V110v2286.7h816.7H8920V1949.5z M1235.2,1053.3C1467.9,902.2,1621,683.7,1692.5,404c104.1-402.2-4.1-810.5-283.8-1092.3c-112.3-112.3-269.5-222.5-318.5-222.5c-6.1,0-10.2,459.4-10.2,1020.8c0,561.5,8.2,1020.8,16.3,1020.8C1106.5,1130.8,1167.8,1096.1,1235.2,1053.3z M8920,110c0-561.5-4.1-1020.8-10.2-1020.8c-49,0-206.2,110.3-318.5,222.5C8144.2-239.1,8162.5,520.4,8628,947.1c100,91.9,234.8,179.7,277.7,183.8C8913.9,1130.8,8920,671.5,8920,110z M4836.7,112v-467.5l-44.9,12.2c-75.5,18.4-228.7,189.9-257.2,281.7c-53.1,181.7-20.4,367.5,89.8,496.1c53.1,61.3,167.4,140.9,208.2,145C4834.6,579.6,4836.7,369.3,4836.7,112z M5347.1,457.1c193.9-191.9,193.9-502.2,0-694.2c-51.1-53.1-114.3-100-138.8-106.2l-44.9-12.2V110v465.5l44.9-12.2C5232.8,557.1,5296,510.2,5347.1,457.1z M753.3,110v-326.7H590H426.7V110v326.7H590h163.3V110z M9573.3,110v-326.7H9410h-163.3V110v326.7H9410h163.3V110z"/></g></g>
</svg>
    </symbol>

    <!--Canalization -->
    <symbol id="icon-canalization" viewBox="0 0 24 24">
        <svg version="1.1" xmlns="http://www.w3.org/2000/svg" viewBox="0 0 512 512"
             xmlns:xlink="http://www.w3.org/1999/xlink" enable-background="new 0 0 512 512">
            <g>
                <path d="m336,200h-48v-48h32c17.672,0 32-14.328 32-32s-14.328-32-32-32h-128c-17.672,0-32,14.328-32,32s14.328,32 32,32h32v48h-48c-17.672,0-32,13.828-32,31.5v160c0,17.672 14.328,32.5 32,32.5h160c17.672,0 32-14.828 32-32.5v-160c0-17.672-14.328-31.5-32-31.5z"/>
                <path d="m480,215.75c-17.672,0-32,14.25-32,32.25h-48v128h48c0,17 14.328,31.75 32,31.75s32-14.578 32-32.25v-32-64-32c0-17.672-14.328-31.75-32-31.75z"/>
                <path d="m32,215.75c-17.672,0-32,14.078-32,31.75v32 64 32c0,17.672 14.328,32.25 32,32.25s32-14.75 32-31.75h48v-128h-48c0-18-14.328-32.25-32-32.25z"/>
            </g>
        </svg>
    </symbol>

    <!-- Location -->
    <symbol id="icon-location" viewBox="0 0 512 512">
        <path d='M256 32c-88.22 0-160 68.65-160 153 0 40.17 18.31 93.59 54.42 158.78 29 52.34 62.55 99.67 80 123.22a31.75 31.75 0 0051.22 0c17.42-23.55 51-70.88 80-123.22C397.69 278.61 416 225.19 416 185c0-84.35-71.78-153-160-153zm0 224a64 64 0 1164-64 64.07 64.07 0 01-64 64z'/>
    </symbol>

    <!-- Location Car -->
    <symbol id="icon-locationCar" viewBox="0 0 24 24">
        <path d="M17.75 7c.138 0 .25.112.25.25v.255c0 .397-.463.495-.808.495l-.543-1h1.101zm-.721 1.753c.32.593.473 1.126.473 1.833 0 .685-.198 1.267-.503 1.991v.923c0 .276-.224.5-.5.5h-.75c-.276 0-.5-.224-.5-.5v-.5h-6.5v.5c0 .276-.224.5-.5.5h-.749c-.276 0-.5-.224-.5-.5v-.924c-.304-.724-.503-1.306-.503-1.991 0-.707.154-1.24.473-1.833.414-.768.926-1.726 1.465-2.626.415-.69.631-.853 1.139-.944.767-.137 1.459-.182 2.426-.182s1.659.045 2.426.182c.508.091.725.253 1.139.945.539.9 1.05 1.857 1.464 2.626zm-8.029 1.497c0-.414-.336-.75-.75-.75s-.75.336-.75.75.336.75.75.75.75-.336.75-.75zm5 .5c0-.138-.112-.25-.25-.25h-3.5c-.138 0-.25.112-.25.25s.112.25.25.25h3.5c.138 0 .25-.112.25-.25zm1.471-2.764s-.37-.913-.815-1.571c-.101-.149-.258-.251-.435-.283-.756-.136-1.418-.179-2.221-.179s-1.465.043-2.22.179c-.177.032-.334.134-.435.283-.445.658-.816 1.571-.816 1.571.821.157 2.155.249 3.471.249s2.65-.092 3.471-.249zm1.029 2.264c0-.414-.336-.75-.75-.75s-.75.336-.75.75.336.75.75.75.75-.336.75-.75zm-9.149-3.25h-1.101c-.138 0-.25.112-.25.25v.255c0 .397.463.495.808.495l.543-1zm4.649-7c-5.523 0-10 4.394-10 9.815 0 5.505 4.375 9.268 10 14.185 5.625-4.917 10-8.68 10-14.185 0-5.421-4.478-9.815-10-9.815zm0 18c-4.419 0-8-3.582-8-8s3.581-8 8-8c4.419 0 8 3.582 8 8s-3.581 8-8 8z"/>
    </symbol>

    <!-- Close -->
    <symbol id="icon-close" viewBox="0 0 512 512">
        <path stroke-width='32' d='M368 368L144 144M368 144L144 368'/>
    </symbol>

    <!-- Close Fill -->
    <symbol id="icon-closeFill" viewBox="0 0 24 24">
        <path d="M12 0c-6.627 0-12 5.373-12 12s5.373 12 12 12 12-5.373 12-12-5.373-12-12-12zm4.597 17.954l-4.591-4.55-4.555 4.596-1.405-1.405 4.547-4.592-4.593-4.552 1.405-1.405 4.588 4.543 4.545-4.589 1.416 1.403-4.546 4.587 4.592 4.548-1.403 1.416z"/>
    </symbol>

    <!-- Heart Add -->
    <symbol id="icon-heartAdd" viewBox="0 0 24 24">
        <path d="M15.653 19.415c-1.162 1.141-2.389 2.331-3.653 3.585-6.43-6.381-12-11.147-12-15.808 0-4.005 3.098-6.192 6.281-6.192 2.197 0 4.434 1.042 5.719 3.248 1.279-2.195 3.521-3.238 5.726-3.238 3.177 0 6.274 2.171 6.274 6.182 0 1.269-.424 2.546-1.154 3.861l-1.483-1.484c.403-.836.637-1.631.637-2.377 0-2.873-2.216-4.182-4.274-4.182-3.257 0-4.976 3.475-5.726 5.021-.747-1.54-2.484-5.03-5.72-5.031-2.315-.001-4.28 1.516-4.28 4.192 0 3.442 4.742 7.85 10 13l2.239-2.191 1.414 1.414zm7.347-5.415h-3v-3h-2v3h-3v2h3v3h2v-3h3v-2z"/>
    </symbol>

    <!-- Left Arrow -->
    <symbol id="icon-leftArrow" viewBox="0 0 24 24">
        <path d="M16.67 0l2.83 2.829-9.339 9.175 9.339 9.167-2.83 2.829-12.17-11.996z"/>
    </symbol>

    <!-- Right Arrow -->
    <symbol id="icon-rightArrow" viewBox="0 0 24 24">
        <path d="M7.33 24l-2.83-2.829 9.339-9.175-9.339-9.167 2.83-2.829 12.17 11.996z"/>
    </symbol>

</svg>
