<svg xmlns="http://www.w3.org/2000/svg" xmlns:xlink="http://www.w3.org/1999/xlink" width="48" height="48" viewBox="0 0 48 48" class="inline-svg">
                      <defs>
                        <linearGradient id="linear-gradient" x1="1" y1="0.127" x2="0.116" y2="0.838" gradientUnits="objectBoundingBox">
                          <stop offset="0" stop-color="#5b58c9"></stop>
                          <stop offset="0.286" stop-color="#bf3077"></stop>
                          <stop offset="0.534" stop-color="#da5c60"></stop>
                          <stop offset="1" stop-color="#f9d67a"></stop>
                        </linearGradient>
                      </defs>
                      <g transform="translate(-224 -1135)">
                        <circle cx="24" cy="24" r="24" transform="translate(224 1135)" fill="url(#linear-gradient)"></circle>
                        <g transform="translate(238.472 1150.473)">
                          <path d="M13.117,0H5A5.005,5.005,0,0,0,0,5v8.118a5.005,5.005,0,0,0,5,5h8.118a5.005,5.005,0,0,0,5-5V5A5.005,5.005,0,0,0,13.117,0Zm3.392,13.117a3.4,3.4,0,0,1-3.392,3.392H5a3.4,3.4,0,0,1-3.392-3.392V5A3.4,3.4,0,0,1,5,1.607h8.118A3.4,3.4,0,0,1,16.509,5v8.118Z" fill="#fff"></path>
                          <path d="M45.636,40.97A4.668,4.668,0,1,0,50.3,45.638,4.673,4.673,0,0,0,45.636,40.97Zm0,7.729A3.061,3.061,0,1,1,48.7,45.638,3.064,3.064,0,0,1,45.636,48.7Z" transform="translate(-36.578 -36.58)" fill="#fff"></path>
                          <path d="M120.1,28.251a1.178,1.178,0,1,0,.834.345A1.183,1.183,0,0,0,120.1,28.251Z" transform="translate(-106.177 -25.224)" fill="#fff"></path>
                        </g>
                      </g>
                    </svg>
