<svg xmlns="http://www.w3.org/2000/svg" width="48" height="48" viewBox="0 0 48 48" class="inline-svg">
                      <g transform="translate(-166 -1135)">
                        <circle cx="24" cy="24" r="24" transform="translate(166 1135)" fill="#5181b8"></circle>
                        <g transform="translate(179.763 1154.609)">
                          <path d="M20.4,128.317a1.4,1.4,0,0,0-.069-.134,10.63,10.63,0,0,0-2.04-2.36l-.021-.021-.011-.01-.011-.011H18.24q-.683-.651-.865-.876a.822.822,0,0,1-.15-.865,8.063,8.063,0,0,1,.961-1.4q.438-.566.694-.908,1.848-2.456,1.6-3.14l-.064-.106a.624.624,0,0,0-.331-.176,1.682,1.682,0,0,0-.684-.027l-3.076.021a.4.4,0,0,0-.214.005l-.139.032-.054.027-.042.032a.475.475,0,0,0-.118.112.733.733,0,0,0-.107.187,17.438,17.438,0,0,1-1.143,2.4q-.4.662-.726,1.148a5.524,5.524,0,0,1-.555.715,3.874,3.874,0,0,1-.406.368q-.182.139-.278.118l-.182-.043a.71.71,0,0,1-.24-.262,1.172,1.172,0,0,1-.123-.417q-.032-.251-.037-.433t.005-.513q.011-.331.011-.449,0-.406.016-.881t.027-.753q.011-.278.011-.587a2.468,2.468,0,0,0-.037-.486,1.663,1.663,0,0,0-.112-.342.575.575,0,0,0-.219-.256,1.234,1.234,0,0,0-.358-.144,7.105,7.105,0,0,0-1.442-.139,7.006,7.006,0,0,0-2.552.256,1.439,1.439,0,0,0-.406.32q-.192.235-.054.256a1.309,1.309,0,0,1,.908.459l.064.128a2.043,2.043,0,0,1,.15.491,4.956,4.956,0,0,1,.1.779,8.313,8.313,0,0,1,0,1.335q-.053.555-.1.865a1.732,1.732,0,0,1-.144.5,2.116,2.116,0,0,1-.128.235.184.184,0,0,1-.053.053.8.8,0,0,1-.288.054.677.677,0,0,1-.363-.15,2.562,2.562,0,0,1-.443-.411,5.5,5.5,0,0,1-.518-.732q-.288-.47-.6-1.111l-.171-.31q-.16-.3-.438-.87T4.336,118.8a.7.7,0,0,0-.256-.342l-.053-.032a.732.732,0,0,0-.171-.091,1.134,1.134,0,0,0-.246-.069l-2.926.021a.744.744,0,0,0-.609.2l-.043.064a.346.346,0,0,0-.032.171.85.85,0,0,0,.064.288q.641,1.506,1.394,2.9t1.308,2.253q.555.854,1.132,1.613t.763.972q.187.214.294.32l.267.256a6.337,6.337,0,0,0,.753.614,12.844,12.844,0,0,0,1.1.705,5.965,5.965,0,0,0,1.4.566,4.855,4.855,0,0,0,1.559.176h1.228a.851.851,0,0,0,.566-.235l.042-.054a.708.708,0,0,0,.08-.2,1.085,1.085,0,0,0,.037-.294,3.519,3.519,0,0,1,.069-.828,2.176,2.176,0,0,1,.182-.555,1.365,1.365,0,0,1,.23-.315.928.928,0,0,1,.182-.155.692.692,0,0,1,.085-.037.678.678,0,0,1,.6.166,3.544,3.544,0,0,1,.652.619q.3.369.731.828a5.025,5.025,0,0,0,.748.684l.214.128a2.6,2.6,0,0,0,.556.235,1.2,1.2,0,0,0,.6.053l2.734-.043a1.239,1.239,0,0,0,.63-.134.529.529,0,0,0,.267-.294.827.827,0,0,0,.005-.363A1.341,1.341,0,0,0,20.4,128.317Z" transform="translate(0 -117.748)" fill="#fff"></path>
                        </g>
                      </g>
                    </svg>
